<svg width="255" height="48" viewBox="0 0 255 48" fill="none" xmlns="http://www.w3.org/2000/svg">
<rect width="255" height="48" fill="url(#paint0_linear_137_2)"/>
<rect width="255" height="48" fill="url(#paint1_linear_137_2)"/>
<g clip-path="url(#clip0_137_2)">
<mask id="mask0_137_2" style="mask-type:luminance" maskUnits="userSpaceOnUse" x="15" y="11" width="25" height="26">
<path d="M27.5 36.5C34.4036 36.5 40 30.9036 40 24C40 17.0964 34.4036 11.5 27.5 11.5C20.5964 11.5 15 17.0964 15 24C15 30.9036 20.5964 36.5 27.5 36.5Z" fill="white"/>
</mask>
<g mask="url(#mask0_137_2)">
<path d="M16.9844 11.5V26.8409H22.581L27.5 18.3182H40V11.5H16.9844Z" fill="#DB4437"/>
<path d="M16.9844 11.5V26.8409H22.581L27.5 18.3182H40V11.5H16.9844Z" fill="url(#paint2_linear_137_2)"/>
<path d="M22.7131 26.7841L17.0568 17.0824L16.9744 17.2244L22.5909 26.8551L22.7131 26.7841Z" fill="#3E2723" fill-opacity="0.15"/>
<path d="M15 36.5H26.8991L32.4219 30.9772V26.8409H22.5781L15 13.8409V36.5Z" fill="#0F9D58"/>
<path d="M15 36.5H26.8991L32.4219 30.9772V26.8409H22.5781L15 13.8409V36.5Z" fill="url(#paint3_linear_137_2)"/>
<path d="M32.3011 27.0256L32.1832 26.9574L26.7287 36.4958H26.8921L32.304 27.0298L32.3011 27.0256Z" fill="#263238" fill-opacity="0.15"/>
<mask id="mask1_137_2" style="mask-type:luminance" maskUnits="userSpaceOnUse" x="15" y="13" width="18" height="24">
<path d="M15 36.5H26.8991L32.4219 30.9772V26.8409H22.5781L15 13.8409V36.5Z" fill="white"/>
</mask>
<g mask="url(#mask1_137_2)">
<path d="M27.5 18.3182L32.4219 26.8409L26.8991 36.5H40V18.3182H27.5Z" fill="#FFCD40"/>
<path d="M27.5 18.3182L32.4219 26.8409L26.8991 36.5H40V18.3182H27.5Z" fill="url(#paint4_linear_137_2)"/>
</g>
<path d="M27.5 18.3182L32.4219 26.8409L26.8991 36.5H40V18.3182H27.5Z" fill="#FFCD40"/>
<path d="M27.5 18.3182L32.4219 26.8409L26.8991 36.5H40V18.3182H27.5Z" fill="url(#paint5_linear_137_2)"/>
<mask id="mask2_137_2" style="mask-type:luminance" maskUnits="userSpaceOnUse" x="26" y="18" width="14" height="19">
<path d="M27.5 18.3182L32.4219 26.8409L26.8991 36.5H40V18.3182H27.5Z" fill="white"/>
</mask>
<g mask="url(#mask2_137_2)">
<path d="M16.9844 11.5V26.8409H22.581L27.5 18.3182H40V11.5H16.9844Z" fill="#DB4437"/>
<path d="M16.9844 11.5V26.8409H22.581L27.5 18.3182H40V11.5H16.9844Z" fill="url(#paint6_linear_137_2)"/>
</g>
</g>
<mask id="mask3_137_2" style="mask-type:luminance" maskUnits="userSpaceOnUse" x="15" y="11" width="25" height="26">
<path d="M27.5 36.5C34.4036 36.5 40 30.9036 40 24C40 17.0964 34.4036 11.5 27.5 11.5C20.5964 11.5 15 17.0964 15 24C15 30.9036 20.5964 36.5 27.5 36.5Z" fill="white"/>
</mask>
<g mask="url(#mask3_137_2)">
<path d="M27.5 18.3182V21.294L38.6364 18.3182H27.5Z" fill="url(#paint7_radial_137_2)"/>
</g>
<mask id="mask4_137_2" style="mask-type:luminance" maskUnits="userSpaceOnUse" x="15" y="11" width="25" height="26">
<path d="M27.5 36.5C34.4036 36.5 40 30.9036 40 24C40 17.0964 34.4036 11.5 27.5 11.5C20.5964 11.5 15 17.0964 15 24C15 30.9036 20.5964 36.5 27.5 36.5Z" fill="white"/>
</mask>
<g mask="url(#mask4_137_2)">
<mask id="mask5_137_2" style="mask-type:luminance" maskUnits="userSpaceOnUse" x="16" y="11" width="24" height="16">
<path d="M16.9844 11.5V17.2301L22.5795 26.8409L27.5 18.3182H40V11.5H16.9844Z" fill="white"/>
</mask>
<g mask="url(#mask5_137_2)">
<path d="M15 36.5H26.8991L32.4219 30.9772V26.8409H22.5781L15 13.8409V36.5Z" fill="#0F9D58"/>
<path d="M15 36.5H26.8991L32.4219 30.9772V26.8409H22.5781L15 13.8409V36.5Z" fill="url(#paint8_linear_137_2)"/>
</g>
</g>
<mask id="mask6_137_2" style="mask-type:luminance" maskUnits="userSpaceOnUse" x="15" y="11" width="25" height="26">
<path d="M27.5 36.5C34.4036 36.5 40 30.9036 40 24C40 17.0964 34.4036 11.5 27.5 11.5C20.5964 11.5 15 17.0964 15 24C15 30.9036 20.5964 36.5 27.5 36.5Z" fill="white"/>
</mask>
<g mask="url(#mask6_137_2)">
<path d="M16.9844 17.2457L25.1165 25.3764L22.5795 26.8409L16.9844 17.2457Z" fill="url(#paint9_radial_137_2)"/>
</g>
<mask id="mask7_137_2" style="mask-type:luminance" maskUnits="userSpaceOnUse" x="15" y="11" width="25" height="26">
<path d="M27.5 36.5C34.4036 36.5 40 30.9036 40 24C40 17.0964 34.4036 11.5 27.5 11.5C20.5964 11.5 15 17.0964 15 24C15 30.9036 20.5964 36.5 27.5 36.5Z" fill="white"/>
</mask>
<g mask="url(#mask7_137_2)">
<path d="M26.9077 36.4858L29.885 25.3779L32.4219 26.8409L26.9077 36.4858Z" fill="url(#paint10_radial_137_2)"/>
</g>
<mask id="mask8_137_2" style="mask-type:luminance" maskUnits="userSpaceOnUse" x="15" y="11" width="25" height="26">
<path d="M27.5 36.5C34.4036 36.5 40 30.9036 40 24C40 17.0964 34.4036 11.5 27.5 11.5C20.5964 11.5 15 17.0964 15 24C15 30.9036 20.5964 36.5 27.5 36.5Z" fill="white"/>
</mask>
<g mask="url(#mask8_137_2)">
<path d="M27.5 29.6818C30.638 29.6818 33.1818 27.138 33.1818 24C33.1818 20.862 30.638 18.3182 27.5 18.3182C24.362 18.3182 21.8182 20.862 21.8182 24C21.8182 27.138 24.362 29.6818 27.5 29.6818Z" fill="#F1F1F1"/>
<path d="M27.5 28.5454C30.0104 28.5454 32.0455 26.5104 32.0455 24C32.0455 21.4896 30.0104 19.4545 27.5 19.4545C24.9896 19.4545 22.9546 21.4896 22.9546 24C22.9546 26.5104 24.9896 28.5454 27.5 28.5454Z" fill="#4285F4"/>
<path d="M27.5 18.1761C24.3608 18.1761 21.8182 20.7188 21.8182 23.858V24C21.8182 20.8608 24.3608 18.3182 27.5 18.3182H40V18.1761H27.5Z" fill="#3E2723" fill-opacity="0.2"/>
<path d="M32.4148 26.8409C31.4318 28.5369 29.6023 29.6818 27.5 29.6818C25.3977 29.6818 23.5653 28.5369 22.5852 26.8409H22.5795L15 13.8409V13.9829L22.5852 26.9829C23.5682 28.679 25.3977 29.8238 27.5 29.8238C29.6023 29.8238 31.4318 28.6804 32.4148 26.9829H32.4219V26.8409H32.4134H32.4148Z" fill="white" fill-opacity="0.1"/>
<path opacity="0.1" d="M27.642 18.3182C27.6179 18.3182 27.5952 18.321 27.571 18.3224C30.6761 18.3608 33.1818 20.8864 33.1818 24C33.1818 27.1136 30.6761 29.6392 27.571 29.6776C27.5952 29.6776 27.6179 29.6818 27.642 29.6818C30.7812 29.6818 33.3239 27.1392 33.3239 24C33.3239 20.8608 30.7812 18.3182 27.642 18.3182Z" fill="#3E2723"/>
<path d="M32.4716 27.0256C32.9545 26.1904 33.2344 25.2244 33.2344 24.1904C33.2347 23.6077 33.1451 23.0284 32.9687 22.473C33.1037 22.9588 33.1818 23.4673 33.1818 23.9972C33.1818 25.0313 32.902 25.9972 32.419 26.8324L32.4219 26.8381L26.8991 36.4972H27.0639L32.4716 27.0256Z" fill="white" fill-opacity="0.2"/>
<path d="M27.5 11.642C34.3793 11.642 39.9602 17.2003 40 24.071C40 24.0469 40.0014 24.0241 40.0014 24C40.0014 17.0966 34.4048 11.5 27.5014 11.5C20.598 11.5 15 17.0966 15 24C15 24.0241 15.0014 24.0469 15.0014 24.071C15.0398 17.2003 20.6207 11.642 27.5 11.642Z" fill="white" fill-opacity="0.2"/>
<path d="M27.5 36.3579C34.3793 36.3579 39.9602 30.7997 40 23.929C40 23.9531 40.0014 23.9758 40.0014 24C40.0014 30.9034 34.4048 36.5 27.5014 36.5C20.598 36.5 15 30.9034 15 24C15 23.9758 15.0014 23.9531 15.0014 23.929C15.0398 30.7997 20.6207 36.3579 27.5014 36.3579H27.5Z" fill="#3E2723" fill-opacity="0.15"/>
</g>
</g>
<path d="M55.2812 14.9375V32H52.3398V14.9375H55.2812ZM61.457 22.0273V32H58.6328V19.3203H61.293L61.457 22.0273ZM60.9531 25.1914L60.0391 25.1797C60.0469 24.2812 60.1719 23.457 60.4141 22.707C60.6641 21.957 61.0078 21.3125 61.4453 20.7734C61.8906 20.2344 62.4219 19.8203 63.0391 19.5312C63.6562 19.2344 64.3438 19.0859 65.1016 19.0859C65.7109 19.0859 66.2617 19.1719 66.7539 19.3438C67.2539 19.5078 67.6797 19.7773 68.0312 20.1523C68.3906 20.5273 68.6641 21.0156 68.8516 21.6172C69.0391 22.2109 69.1328 22.9414 69.1328 23.8086V32H66.2969V23.7969C66.2969 23.1875 66.207 22.707 66.0273 22.3555C65.8555 21.9961 65.6016 21.7422 65.2656 21.5938C64.9375 21.4375 64.5273 21.3594 64.0352 21.3594C63.5508 21.3594 63.1172 21.4609 62.7344 21.6641C62.3516 21.8672 62.0273 22.1445 61.7617 22.4961C61.5039 22.8477 61.3047 23.2539 61.1641 23.7148C61.0234 24.1758 60.9531 24.668 60.9531 25.1914ZM79.1289 28.5664C79.1289 28.2852 79.0586 28.0312 78.918 27.8047C78.7773 27.5703 78.5078 27.3594 78.1094 27.1719C77.7188 26.9844 77.1406 26.8125 76.375 26.6562C75.7031 26.5078 75.0859 26.332 74.5234 26.1289C73.9688 25.918 73.4922 25.6641 73.0938 25.3672C72.6953 25.0703 72.3867 24.7188 72.168 24.3125C71.9492 23.9062 71.8398 23.4375 71.8398 22.9062C71.8398 22.3906 71.9531 21.9023 72.1797 21.4414C72.4062 20.9805 72.7305 20.5742 73.1523 20.2227C73.5742 19.8711 74.0859 19.5938 74.6875 19.3906C75.2969 19.1875 75.9766 19.0859 76.7266 19.0859C77.7891 19.0859 78.6992 19.2656 79.457 19.625C80.2227 19.9766 80.8086 20.457 81.2148 21.0664C81.6211 21.668 81.8242 22.3477 81.8242 23.1055H79C79 22.7695 78.9141 22.457 78.7422 22.168C78.5781 21.8711 78.3281 21.6328 77.9922 21.4531C77.6562 21.2656 77.2344 21.1719 76.7266 21.1719C76.2422 21.1719 75.8398 21.25 75.5195 21.4062C75.207 21.5547 74.9727 21.75 74.8164 21.9922C74.668 22.2344 74.5938 22.5 74.5938 22.7891C74.5938 23 74.6328 23.1914 74.7109 23.3633C74.7969 23.5273 74.9375 23.6797 75.1328 23.8203C75.3281 23.9531 75.5938 24.0781 75.9297 24.1953C76.2734 24.3125 76.7031 24.4258 77.2188 24.5352C78.1875 24.7383 79.0195 25 79.7148 25.3203C80.418 25.6328 80.957 26.0391 81.332 26.5391C81.707 27.0312 81.8945 27.6562 81.8945 28.4141C81.8945 28.9766 81.7734 29.4922 81.5312 29.9609C81.2969 30.4219 80.9531 30.8242 80.5 31.168C80.0469 31.5039 79.5039 31.7656 78.8711 31.9531C78.2461 32.1406 77.543 32.2344 76.7617 32.2344C75.6133 32.2344 74.6406 32.0312 73.8438 31.625C73.0469 31.2109 72.4414 30.6836 72.0273 30.043C71.6211 29.3945 71.418 28.7227 71.418 28.0273H74.1484C74.1797 28.5508 74.3242 28.9688 74.582 29.2812C74.8477 29.5859 75.1758 29.8086 75.5664 29.9492C75.9648 30.082 76.375 30.1484 76.7969 30.1484C77.3047 30.1484 77.7305 30.082 78.0742 29.9492C78.418 29.8086 78.6797 29.6211 78.8594 29.3867C79.0391 29.1445 79.1289 28.8711 79.1289 28.5664ZM90.1797 19.3203V21.3828H83.0312V19.3203H90.1797ZM85.0938 16.2148H87.918V28.4961C87.918 28.8867 87.9727 29.1875 88.082 29.3984C88.1992 29.6016 88.3594 29.7383 88.5625 29.8086C88.7656 29.8789 89.0039 29.9141 89.2773 29.9141C89.4727 29.9141 89.6602 29.9023 89.8398 29.8789C90.0195 29.8555 90.1641 29.832 90.2734 29.8086L90.2852 31.9648C90.0508 32.0352 89.7773 32.0977 89.4648 32.1523C89.1602 32.207 88.8086 32.2344 88.4102 32.2344C87.7617 32.2344 87.1875 32.1211 86.6875 31.8945C86.1875 31.6602 85.7969 31.2812 85.5156 30.7578C85.2344 30.2344 85.0938 29.5391 85.0938 28.6719V16.2148ZM99.5078 29.457V23.4102C99.5078 22.957 99.4258 22.5664 99.2617 22.2383C99.0977 21.9102 98.8477 21.6562 98.5117 21.4766C98.1836 21.2969 97.7695 21.207 97.2695 21.207C96.8086 21.207 96.4102 21.2852 96.0742 21.4414C95.7383 21.5977 95.4766 21.8086 95.2891 22.0742C95.1016 22.3398 95.0078 22.6406 95.0078 22.9766H92.1953C92.1953 22.4766 92.3164 21.9922 92.5586 21.5234C92.8008 21.0547 93.1523 20.6367 93.6133 20.2695C94.0742 19.9023 94.625 19.6133 95.2656 19.4023C95.9062 19.1914 96.625 19.0859 97.4219 19.0859C98.375 19.0859 99.2188 19.2461 99.9531 19.5664C100.695 19.8867 101.277 20.3711 101.699 21.0195C102.129 21.6602 102.344 22.4648 102.344 23.4336V29.0703C102.344 29.6484 102.383 30.168 102.461 30.6289C102.547 31.082 102.668 31.4766 102.824 31.8125V32H99.9297C99.7969 31.6953 99.6914 31.3086 99.6133 30.8398C99.543 30.3633 99.5078 29.9023 99.5078 29.457ZM99.918 24.2891L99.9414 26.0352H97.9141C97.3906 26.0352 96.9297 26.0859 96.5312 26.1875C96.1328 26.2812 95.8008 26.4219 95.5352 26.6094C95.2695 26.7969 95.0703 27.0234 94.9375 27.2891C94.8047 27.5547 94.7383 27.8555 94.7383 28.1914C94.7383 28.5273 94.8164 28.8359 94.9727 29.1172C95.1289 29.3906 95.3555 29.6055 95.6523 29.7617C95.957 29.918 96.3242 29.9961 96.7539 29.9961C97.332 29.9961 97.8359 29.8789 98.2656 29.6445C98.7031 29.4023 99.0469 29.1094 99.2969 28.7656C99.5469 28.4141 99.6797 28.082 99.6953 27.7695L100.609 29.0234C100.516 29.3438 100.355 29.6875 100.129 30.0547C99.9023 30.4219 99.6055 30.7734 99.2383 31.1094C98.8789 31.4375 98.4453 31.707 97.9375 31.918C97.4375 32.1289 96.8594 32.2344 96.2031 32.2344C95.375 32.2344 94.6367 32.0703 93.9883 31.7422C93.3398 31.4062 92.832 30.957 92.4648 30.3945C92.0977 29.8242 91.9141 29.1797 91.9141 28.4609C91.9141 27.7891 92.0391 27.1953 92.2891 26.6797C92.5469 26.1562 92.9219 25.7188 93.4141 25.3672C93.9141 25.0156 94.5234 24.75 95.2422 24.5703C95.9609 24.3828 96.7812 24.2891 97.7031 24.2891H99.918ZM108.32 14V32H105.484V14H108.32ZM114.438 14V32H111.602V14H114.438ZM122.969 25.8008V25.5312C122.969 24.6172 123.102 23.7695 123.367 22.9883C123.633 22.1992 124.016 21.5156 124.516 20.9375C125.023 20.3516 125.641 19.8984 126.367 19.5781C127.102 19.25 127.93 19.0859 128.852 19.0859C129.781 19.0859 130.609 19.25 131.336 19.5781C132.07 19.8984 132.691 20.3516 133.199 20.9375C133.707 21.5156 134.094 22.1992 134.359 22.9883C134.625 23.7695 134.758 24.6172 134.758 25.5312V25.8008C134.758 26.7148 134.625 27.5625 134.359 28.3438C134.094 29.125 133.707 29.8086 133.199 30.3945C132.691 30.9727 132.074 31.4258 131.348 31.7539C130.621 32.0742 129.797 32.2344 128.875 32.2344C127.945 32.2344 127.113 32.0742 126.379 31.7539C125.652 31.4258 125.035 30.9727 124.527 30.3945C124.02 29.8086 123.633 29.125 123.367 28.3438C123.102 27.5625 122.969 26.7148 122.969 25.8008ZM125.793 25.5312V25.8008C125.793 26.3711 125.852 26.9102 125.969 27.418C126.086 27.9258 126.27 28.3711 126.52 28.7539C126.77 29.1367 127.09 29.4375 127.48 29.6562C127.871 29.875 128.336 29.9844 128.875 29.9844C129.398 29.9844 129.852 29.875 130.234 29.6562C130.625 29.4375 130.945 29.1367 131.195 28.7539C131.445 28.3711 131.629 27.9258 131.746 27.418C131.871 26.9102 131.934 26.3711 131.934 25.8008V25.5312C131.934 24.9688 131.871 24.4375 131.746 23.9375C131.629 23.4297 131.441 22.9805 131.184 22.5898C130.934 22.1992 130.613 21.8945 130.223 21.6758C129.84 21.4492 129.383 21.3359 128.852 21.3359C128.32 21.3359 127.859 21.4492 127.469 21.6758C127.086 21.8945 126.77 22.1992 126.52 22.5898C126.27 22.9805 126.086 23.4297 125.969 23.9375C125.852 24.4375 125.793 24.9688 125.793 25.5312ZM139.926 22.0273V32H137.102V19.3203H139.762L139.926 22.0273ZM139.422 25.1914L138.508 25.1797C138.516 24.2812 138.641 23.457 138.883 22.707C139.133 21.957 139.477 21.3125 139.914 20.7734C140.359 20.2344 140.891 19.8203 141.508 19.5312C142.125 19.2344 142.812 19.0859 143.57 19.0859C144.18 19.0859 144.73 19.1719 145.223 19.3438C145.723 19.5078 146.148 19.7773 146.5 20.1523C146.859 20.5273 147.133 21.0156 147.32 21.6172C147.508 22.2109 147.602 22.9414 147.602 23.8086V32H144.766V23.7969C144.766 23.1875 144.676 22.707 144.496 22.3555C144.324 21.9961 144.07 21.7422 143.734 21.5938C143.406 21.4375 142.996 21.3594 142.504 21.3594C142.02 21.3594 141.586 21.4609 141.203 21.6641C140.82 21.8672 140.496 22.1445 140.23 22.4961C139.973 22.8477 139.773 23.2539 139.633 23.7148C139.492 24.1758 139.422 24.668 139.422 25.1914ZM166.82 26.4453H169.75C169.656 27.5625 169.344 28.5586 168.812 29.4336C168.281 30.3008 167.535 30.9844 166.574 31.4844C165.613 31.9844 164.445 32.2344 163.07 32.2344C162.016 32.2344 161.066 32.0469 160.223 31.6719C159.379 31.2891 158.656 30.75 158.055 30.0547C157.453 29.3516 156.992 28.5039 156.672 27.5117C156.359 26.5195 156.203 25.4102 156.203 24.1836V22.7656C156.203 21.5391 156.363 20.4297 156.684 19.4375C157.012 18.4453 157.48 17.5977 158.09 16.8945C158.699 16.1836 159.43 15.6406 160.281 15.2656C161.141 14.8906 162.105 14.7031 163.176 14.7031C164.535 14.7031 165.684 14.9531 166.621 15.4531C167.559 15.9531 168.285 16.6445 168.801 17.5273C169.324 18.4102 169.645 19.4219 169.762 20.5625H166.832C166.754 19.8281 166.582 19.1992 166.316 18.6758C166.059 18.1523 165.676 17.7539 165.168 17.4805C164.66 17.1992 163.996 17.0586 163.176 17.0586C162.504 17.0586 161.918 17.1836 161.418 17.4336C160.918 17.6836 160.5 18.0508 160.164 18.5352C159.828 19.0195 159.574 19.6172 159.402 20.3281C159.238 21.0312 159.156 21.8359 159.156 22.7422V24.1836C159.156 25.043 159.23 25.8242 159.379 26.5273C159.535 27.2227 159.77 27.8203 160.082 28.3203C160.402 28.8203 160.809 29.207 161.301 29.4805C161.793 29.7539 162.383 29.8906 163.07 29.8906C163.906 29.8906 164.582 29.7578 165.098 29.4922C165.621 29.2266 166.016 28.8398 166.281 28.332C166.555 27.8164 166.734 27.1875 166.82 26.4453ZM174.93 14V32H172.117V14H174.93ZM174.438 25.1914L173.523 25.1797C173.531 24.3047 173.652 23.4961 173.887 22.7539C174.129 22.0117 174.465 21.3672 174.895 20.8203C175.332 20.2656 175.855 19.8398 176.465 19.543C177.074 19.2383 177.75 19.0859 178.492 19.0859C179.117 19.0859 179.68 19.1719 180.18 19.3438C180.688 19.5156 181.125 19.793 181.492 20.1758C181.859 20.5508 182.137 21.043 182.324 21.6523C182.52 22.2539 182.617 22.9883 182.617 23.8555V32H179.781V23.832C179.781 23.2227 179.691 22.7383 179.512 22.3789C179.34 22.0195 179.086 21.7617 178.75 21.6055C178.414 21.4414 178.004 21.3594 177.52 21.3594C177.012 21.3594 176.562 21.4609 176.172 21.6641C175.789 21.8672 175.469 22.1445 175.211 22.4961C174.953 22.8477 174.758 23.2539 174.625 23.7148C174.5 24.1758 174.438 24.668 174.438 25.1914ZM188.312 21.7344V32H185.488V19.3203H188.184L188.312 21.7344ZM192.191 19.2383L192.168 21.8633C191.996 21.832 191.809 21.8086 191.605 21.793C191.41 21.7773 191.215 21.7695 191.02 21.7695C190.535 21.7695 190.109 21.8398 189.742 21.9805C189.375 22.1133 189.066 22.3086 188.816 22.5664C188.574 22.8164 188.387 23.1211 188.254 23.4805C188.121 23.8398 188.043 24.2422 188.02 24.6875L187.375 24.7344C187.375 23.9375 187.453 23.1992 187.609 22.5195C187.766 21.8398 188 21.2422 188.312 20.7266C188.633 20.2109 189.031 19.8086 189.508 19.5195C189.992 19.2305 190.551 19.0859 191.184 19.0859C191.355 19.0859 191.539 19.1016 191.734 19.1328C191.938 19.1641 192.09 19.1992 192.191 19.2383ZM193.117 25.8008V25.5312C193.117 24.6172 193.25 23.7695 193.516 22.9883C193.781 22.1992 194.164 21.5156 194.664 20.9375C195.172 20.3516 195.789 19.8984 196.516 19.5781C197.25 19.25 198.078 19.0859 199 19.0859C199.93 19.0859 200.758 19.25 201.484 19.5781C202.219 19.8984 202.84 20.3516 203.348 20.9375C203.855 21.5156 204.242 22.1992 204.508 22.9883C204.773 23.7695 204.906 24.6172 204.906 25.5312V25.8008C204.906 26.7148 204.773 27.5625 204.508 28.3438C204.242 29.125 203.855 29.8086 203.348 30.3945C202.84 30.9727 202.223 31.4258 201.496 31.7539C200.77 32.0742 199.945 32.2344 199.023 32.2344C198.094 32.2344 197.262 32.0742 196.527 31.7539C195.801 31.4258 195.184 30.9727 194.676 30.3945C194.168 29.8086 193.781 29.125 193.516 28.3438C193.25 27.5625 193.117 26.7148 193.117 25.8008ZM195.941 25.5312V25.8008C195.941 26.3711 196 26.9102 196.117 27.418C196.234 27.9258 196.418 28.3711 196.668 28.7539C196.918 29.1367 197.238 29.4375 197.629 29.6562C198.02 29.875 198.484 29.9844 199.023 29.9844C199.547 29.9844 200 29.875 200.383 29.6562C200.773 29.4375 201.094 29.1367 201.344 28.7539C201.594 28.3711 201.777 27.9258 201.895 27.418C202.02 26.9102 202.082 26.3711 202.082 25.8008V25.5312C202.082 24.9688 202.02 24.4375 201.895 23.9375C201.777 23.4297 201.59 22.9805 201.332 22.5898C201.082 22.1992 200.762 21.8945 200.371 21.6758C199.988 21.4492 199.531 21.3359 199 21.3359C198.469 21.3359 198.008 21.4492 197.617 21.6758C197.234 21.8945 196.918 22.1992 196.668 22.5898C196.418 22.9805 196.234 23.4297 196.117 23.9375C196 24.4375 195.941 24.9688 195.941 25.5312ZM210.098 21.8984V32H207.273V19.3203H209.934L210.098 21.8984ZM209.641 25.1914L208.68 25.1797C208.68 24.3047 208.789 23.4961 209.008 22.7539C209.227 22.0117 209.547 21.3672 209.969 20.8203C210.391 20.2656 210.914 19.8398 211.539 19.543C212.172 19.2383 212.902 19.0859 213.73 19.0859C214.309 19.0859 214.836 19.1719 215.312 19.3438C215.797 19.5078 216.215 19.7695 216.566 20.1289C216.926 20.4883 217.199 20.9492 217.387 21.5117C217.582 22.0742 217.68 22.7539 217.68 23.5508V32H214.855V23.7969C214.855 23.1797 214.762 22.6953 214.574 22.3438C214.395 21.9922 214.133 21.7422 213.789 21.5938C213.453 21.4375 213.051 21.3594 212.582 21.3594C212.051 21.3594 211.598 21.4609 211.223 21.6641C210.855 21.8672 210.555 22.1445 210.32 22.4961C210.086 22.8477 209.914 23.2539 209.805 23.7148C209.695 24.1758 209.641 24.668 209.641 25.1914ZM217.504 24.4414L216.18 24.7344C216.18 23.9688 216.285 23.2461 216.496 22.5664C216.715 21.8789 217.031 21.2773 217.445 20.7617C217.867 20.2383 218.387 19.8281 219.004 19.5312C219.621 19.2344 220.328 19.0859 221.125 19.0859C221.773 19.0859 222.352 19.1758 222.859 19.3555C223.375 19.5273 223.812 19.8008 224.172 20.1758C224.531 20.5508 224.805 21.0391 224.992 21.6406C225.18 22.2344 225.273 22.9531 225.273 23.7969V32H222.438V23.7852C222.438 23.1445 222.344 22.6484 222.156 22.2969C221.977 21.9453 221.719 21.7031 221.383 21.5703C221.047 21.4297 220.645 21.3594 220.176 21.3594C219.738 21.3594 219.352 21.4414 219.016 21.6055C218.688 21.7617 218.41 21.9844 218.184 22.2734C217.957 22.5547 217.785 22.8789 217.668 23.2461C217.559 23.6133 217.504 24.0117 217.504 24.4414ZM233.77 32.2344C232.832 32.2344 231.984 32.082 231.227 31.7773C230.477 31.4648 229.836 31.0312 229.305 30.4766C228.781 29.9219 228.379 29.2695 228.098 28.5195C227.816 27.7695 227.676 26.9609 227.676 26.0938V25.625C227.676 24.6328 227.82 23.7344 228.109 22.9297C228.398 22.125 228.801 21.4375 229.316 20.8672C229.832 20.2891 230.441 19.8477 231.145 19.543C231.848 19.2383 232.609 19.0859 233.43 19.0859C234.336 19.0859 235.129 19.2383 235.809 19.543C236.488 19.8477 237.051 20.2773 237.496 20.832C237.949 21.3789 238.285 22.0312 238.504 22.7891C238.73 23.5469 238.844 24.3828 238.844 25.2969V26.5039H229.047V24.4766H236.055V24.2539C236.039 23.7461 235.938 23.2695 235.75 22.8242C235.57 22.3789 235.293 22.0195 234.918 21.7461C234.543 21.4727 234.043 21.3359 233.418 21.3359C232.949 21.3359 232.531 21.4375 232.164 21.6406C231.805 21.8359 231.504 22.1211 231.262 22.4961C231.02 22.8711 230.832 23.3242 230.699 23.8555C230.574 24.3789 230.512 24.9688 230.512 25.625V26.0938C230.512 26.6484 230.586 27.1641 230.734 27.6406C230.891 28.1094 231.117 28.5195 231.414 28.8711C231.711 29.2227 232.07 29.5 232.492 29.7031C232.914 29.8984 233.395 29.9961 233.934 29.9961C234.613 29.9961 235.219 29.8594 235.75 29.5859C236.281 29.3125 236.742 28.9258 237.133 28.4258L238.621 29.8672C238.348 30.2656 237.992 30.6484 237.555 31.0156C237.117 31.375 236.582 31.668 235.949 31.8945C235.324 32.1211 234.598 32.2344 233.77 32.2344Z" fill="white"/>
<defs>
<linearGradient id="paint0_linear_137_2" x1="-4.5" y1="48" x2="255" y2="5.49999" gradientUnits="userSpaceOnUse">
<stop stop-color="#046A41"/>
<stop offset="1" stop-color="#07A564"/>
</linearGradient>
<linearGradient id="paint1_linear_137_2" x1="0" y1="48" x2="255" y2="4" gradientUnits="userSpaceOnUse">
<stop stop-color="#08578D"/>
<stop offset="1" stop-color="#4285F4"/>
</linearGradient>
<linearGradient id="paint2_linear_137_2" x1="18.0313" y1="21.0199" x2="25.4886" y2="16.6634" gradientUnits="userSpaceOnUse">
<stop stop-color="#A52714" stop-opacity="0.6"/>
<stop offset="0.66" stop-color="#A52714" stop-opacity="0"/>
</linearGradient>
<linearGradient id="paint3_linear_137_2" x1="29.6165" y1="33.7301" x2="21.3267" y2="28.8721" gradientUnits="userSpaceOnUse">
<stop stop-color="#055524" stop-opacity="0.4"/>
<stop offset="0.33" stop-color="#055524" stop-opacity="0"/>
</linearGradient>
<linearGradient id="paint4_linear_137_2" x1="31.179" y1="17.4375" x2="33.267" y2="26.571" gradientUnits="userSpaceOnUse">
<stop stop-color="#EA6100" stop-opacity="0.3"/>
<stop offset="0.66" stop-color="#EA6100" stop-opacity="0"/>
</linearGradient>
<linearGradient id="paint5_linear_137_2" x1="31.179" y1="17.4375" x2="33.267" y2="26.571" gradientUnits="userSpaceOnUse">
<stop stop-color="#EA6100" stop-opacity="0.3"/>
<stop offset="0.66" stop-color="#EA6100" stop-opacity="0"/>
</linearGradient>
<linearGradient id="paint6_linear_137_2" x1="18.0313" y1="21.0199" x2="25.4886" y2="16.6634" gradientUnits="userSpaceOnUse">
<stop stop-color="#A52714" stop-opacity="0.6"/>
<stop offset="0.66" stop-color="#A52714" stop-opacity="0"/>
</linearGradient>
<radialGradient id="paint7_radial_137_2" cx="0" cy="0" r="1" gradientUnits="userSpaceOnUse" gradientTransform="translate(26.9602 18.3111) scale(11.9432)">
<stop stop-color="#3E2723" stop-opacity="0.2"/>
<stop offset="1" stop-color="#3E2723" stop-opacity="0"/>
</radialGradient>
<linearGradient id="paint8_linear_137_2" x1="29.6165" y1="33.7301" x2="21.3267" y2="28.8721" gradientUnits="userSpaceOnUse">
<stop stop-color="#055524" stop-opacity="0.4"/>
<stop offset="0.33" stop-color="#055524" stop-opacity="0"/>
</linearGradient>
<radialGradient id="paint9_radial_137_2" cx="0" cy="0" r="1" gradientUnits="userSpaceOnUse" gradientTransform="translate(16.9744 17.2557) scale(11.0852 11.0852)">
<stop stop-color="#3E2723" stop-opacity="0.2"/>
<stop offset="1" stop-color="#3E2723" stop-opacity="0"/>
</radialGradient>
<radialGradient id="paint10_radial_137_2" cx="0" cy="0" r="1" gradientUnits="userSpaceOnUse" gradientTransform="translate(27.4716 24.0199) scale(12.4815 12.4815)">
<stop stop-color="#263238" stop-opacity="0.2"/>
<stop offset="1" stop-color="#263238" stop-opacity="0"/>
</radialGradient>
<clipPath id="clip0_137_2">
<rect width="25" height="25" fill="white" transform="translate(15 11.5)"/>
</clipPath>
</defs>
</svg>
