<svg width="255" height="48" viewBox="0 0 255 48" fill="none" xmlns="http://www.w3.org/2000/svg">
<rect width="255" height="48" rx="6" fill="url(#paint0_linear_24_98)"/>
<g clip-path="url(#clip0_24_98)">
<path d="M43.9516 19.6822C43.438 18.4464 42.3961 17.112 41.5802 16.6902C42.1621 17.8172 42.566 19.0276 42.7773 20.2782L42.7795 20.298C41.4429 16.9659 39.1765 15.6224 37.3254 12.6968C37.2318 12.5489 37.1382 12.4006 37.047 12.2442C36.9948 12.1548 36.953 12.0743 36.9167 12.0002C36.84 11.8515 36.7808 11.6944 36.7404 11.532C36.7405 11.5245 36.7378 11.5173 36.7328 11.5116C36.7279 11.506 36.721 11.5024 36.7136 11.5015C36.7063 11.4995 36.6986 11.4995 36.6913 11.5015C36.6898 11.5015 36.6874 11.5042 36.6855 11.5049C36.6837 11.5055 36.6797 11.5082 36.677 11.5094L36.6816 11.5015C33.7124 13.24 32.705 16.4584 32.6123 18.0682C31.4265 18.1497 30.2928 18.5866 29.3591 19.322C29.2617 19.2395 29.1599 19.1623 29.0541 19.0908C28.7848 18.1481 28.7733 17.1503 29.0209 16.2016C27.9305 16.7298 26.9616 17.4786 26.1755 18.4006H26.17C25.7015 17.8068 25.7345 15.8487 25.7613 15.4397C25.6227 15.4954 25.4904 15.5656 25.3667 15.6492C24.9531 15.9444 24.5665 16.2756 24.2113 16.6389C23.8066 17.0493 23.437 17.4928 23.1063 17.9648C22.3463 19.0422 21.8073 20.2592 21.5203 21.5461L21.5044 21.6242C21.4822 21.7282 21.4019 22.2491 21.3882 22.3623C21.3882 22.3711 21.3864 22.3794 21.3855 22.3882C21.282 22.926 21.2179 23.4707 21.1936 24.0178V24.0788C21.1962 27.0386 22.309 29.8898 24.3121 32.0688C26.3152 34.2478 29.0628 35.5962 32.012 35.8474C34.9611 36.0985 37.8972 35.2343 40.2399 33.4254C42.5826 31.6165 44.1616 28.9945 44.6647 26.0778C44.6845 25.9253 44.7007 25.7743 44.7183 25.6203C44.9618 23.608 44.6982 21.5667 43.9516 19.6822ZM30.3272 28.9353C30.3824 28.9619 30.4342 28.9906 30.491 29.0159L30.4992 29.0211C30.4419 28.9936 30.3845 28.965 30.3272 28.9353ZM42.7804 20.3008V20.2895L42.7825 20.302L42.7804 20.3008Z" fill="url(#paint1_linear_24_98)"/>
<path d="M43.9516 19.6822C43.438 18.4464 42.3961 17.112 41.5802 16.6902C42.1621 17.8172 42.566 19.0276 42.7773 20.2782V20.2895L42.7795 20.302C43.6906 22.9093 43.5588 25.7678 42.4116 28.2802C41.0568 31.1872 37.7774 34.1667 32.6443 34.0219C27.0978 33.8648 22.2133 29.7491 21.3001 24.3585C21.1339 23.5085 21.3001 23.0775 21.3836 22.3867C21.2696 22.9233 21.206 23.4694 21.1936 24.0178V24.0788C21.1962 27.0386 22.309 29.8898 24.3121 32.0688C26.3152 34.2479 29.0628 35.5962 32.012 35.8474C34.9611 36.0985 37.8972 35.2343 40.2399 33.4254C42.5826 31.6165 44.1616 28.9946 44.6647 26.0778C44.6845 25.9253 44.7007 25.7743 44.7183 25.6203C44.9618 23.608 44.6982 21.5667 43.9516 19.6822Z" fill="url(#paint2_radial_24_98)"/>
<path d="M43.9516 19.6822C43.438 18.4464 42.3961 17.112 41.5802 16.6902C42.1621 17.8172 42.566 19.0276 42.7773 20.2782V20.2895L42.7795 20.302C43.6906 22.9093 43.5588 25.7678 42.4116 28.2802C41.0568 31.1872 37.7774 34.1667 32.6443 34.0219C27.0978 33.8648 22.2133 29.7491 21.3001 24.3585C21.1339 23.5085 21.3001 23.0775 21.3836 22.3867C21.2696 22.9233 21.206 23.4694 21.1936 24.0178V24.0788C21.1962 27.0386 22.309 29.8898 24.3121 32.0688C26.3152 34.2479 29.0628 35.5962 32.012 35.8474C34.9611 36.0985 37.8972 35.2343 40.2399 33.4254C42.5826 31.6165 44.1616 28.9946 44.6647 26.0778C44.6845 25.9253 44.7007 25.7743 44.7183 25.6203C44.9618 23.608 44.6982 21.5667 43.9516 19.6822Z" fill="url(#paint3_radial_24_98)"/>
<path d="M38.2072 21.0718C38.2328 21.0898 38.2566 21.1078 38.2807 21.1258C37.9838 20.5993 37.6141 20.1172 37.1827 19.6938C33.5087 16.0192 36.2198 11.7263 36.677 11.5082L36.6816 11.5015C33.7124 13.24 32.705 16.4584 32.6123 18.0682C32.7501 18.0587 32.8868 18.0471 33.0277 18.0471C34.0812 18.0491 35.1154 18.33 36.0252 18.8612C36.935 19.3925 37.6878 20.1552 38.2072 21.0718Z" fill="url(#paint4_radial_24_98)"/>
<path d="M33.0353 21.8056C33.0158 22.0997 31.977 23.1138 31.6137 23.1138C28.2523 23.1138 27.7066 25.1472 27.7066 25.1472C27.8555 26.8595 29.0486 28.2698 30.491 29.0159C30.5569 29.05 30.6237 29.0808 30.6905 29.111C30.8062 29.1623 30.9219 29.2096 31.0375 29.2532C31.5326 29.4283 32.051 29.5284 32.5757 29.5499C38.4674 29.8263 39.6087 22.5044 35.357 20.3798C36.36 20.2493 37.3757 20.4959 38.2072 21.0718C37.6878 20.1552 36.935 19.3925 36.0252 18.8612C35.1154 18.3299 34.0812 18.049 33.0277 18.0471C32.8874 18.0471 32.7501 18.0587 32.6123 18.0682C31.4265 18.1497 30.2928 18.5866 29.3591 19.322C29.5394 19.4745 29.7428 19.6783 30.1713 20.1007C30.9735 20.8909 33.0307 21.7096 33.0353 21.8056Z" fill="url(#paint5_radial_24_98)"/>
<path d="M33.0353 21.8056C33.0158 22.0997 31.977 23.1138 31.6137 23.1138C28.2523 23.1138 27.7066 25.1472 27.7066 25.1472C27.8555 26.8595 29.0486 28.2698 30.491 29.0159C30.5569 29.05 30.6237 29.0808 30.6905 29.111C30.8062 29.1623 30.9219 29.2096 31.0375 29.2532C31.5326 29.4283 32.051 29.5284 32.5757 29.5499C38.4674 29.8263 39.6087 22.5044 35.357 20.3798C36.36 20.2493 37.3757 20.4959 38.2072 21.0718C37.6878 20.1552 36.935 19.3925 36.0252 18.8612C35.1154 18.3299 34.0812 18.049 33.0277 18.0471C32.8874 18.0471 32.7501 18.0587 32.6123 18.0682C31.4265 18.1497 30.2928 18.5866 29.3591 19.322C29.5394 19.4745 29.7428 19.6783 30.1713 20.1007C30.9735 20.8909 33.0307 21.7096 33.0353 21.8056Z" fill="url(#paint6_radial_24_98)"/>
<path d="M28.808 18.9289C28.9038 18.9899 28.9828 19.0429 29.052 19.0908C28.7827 18.148 28.7712 17.1503 29.0188 16.2015C27.9284 16.7298 26.9595 17.4786 26.1734 18.4006C26.231 18.3991 27.9458 18.3683 28.808 18.9289Z" fill="url(#paint7_radial_24_98)"/>
<path d="M21.3016 24.3585C22.2139 29.7491 27.0994 33.8648 32.6458 34.0219C37.779 34.1671 41.0583 31.1872 42.4132 28.2802C43.5603 25.7678 43.6921 22.9093 42.781 20.302V20.2907C42.781 20.2819 42.7792 20.2767 42.781 20.2795L42.7831 20.2993C43.2025 23.0373 41.8099 25.6899 39.6328 27.4836L39.6261 27.4988C35.3841 30.9536 31.3245 29.5832 30.5029 29.0238C30.4455 28.9964 30.3882 28.9678 30.3309 28.9381C27.8576 27.7559 26.8358 25.5026 27.0548 23.5701C26.4677 23.5788 25.8907 23.417 25.3937 23.1044C24.8967 22.7917 24.501 22.3417 24.2546 21.8087C24.9039 21.411 25.6441 21.1861 26.4049 21.1556C27.1657 21.1251 27.9216 21.2898 28.6006 21.6343C30.0005 22.2698 31.5935 22.3324 33.039 21.8087C33.0344 21.7127 30.9771 20.8937 30.175 20.1038C29.7465 19.6813 29.543 19.4779 29.3628 19.3251C29.2654 19.2426 29.1635 19.1654 29.0578 19.0939C28.9876 19.046 28.9086 18.9942 28.8138 18.932C27.9515 18.3714 26.2368 18.4022 26.1801 18.4037H26.1746C25.7061 17.8099 25.7391 15.8518 25.7659 15.4427C25.6273 15.4984 25.495 15.5687 25.3712 15.6523C24.9577 15.9475 24.571 16.2787 24.2159 16.642C23.8097 17.0512 23.4386 17.4937 23.1063 17.9648C22.3463 19.0422 21.8073 20.2592 21.5203 21.5461C21.5145 21.5702 21.0945 23.4063 21.3016 24.3585Z" fill="url(#paint8_radial_24_98)"/>
<path d="M37.1833 19.6938C37.6149 20.1177 37.9845 20.6003 38.2813 21.1273C38.3463 21.1764 38.407 21.2252 38.4585 21.2725C41.1386 23.743 39.7344 27.2353 39.6297 27.4838C41.8068 25.6901 43.1982 23.0375 42.7801 20.2996C41.443 16.9659 39.1765 15.6224 37.3255 12.6968C37.2318 12.5489 37.1382 12.4006 37.047 12.2442C36.9948 12.1548 36.953 12.0743 36.9168 12.0002C36.84 11.8515 36.7808 11.6944 36.7405 11.532C36.7405 11.5245 36.7378 11.5173 36.7329 11.5116C36.7279 11.506 36.7211 11.5024 36.7136 11.5015C36.7063 11.4995 36.6986 11.4995 36.6914 11.5015C36.6898 11.5015 36.6874 11.5042 36.6856 11.5049C36.6837 11.5055 36.6798 11.5082 36.677 11.5094C36.2198 11.7263 33.5087 16.0192 37.1833 19.6938Z" fill="url(#paint9_radial_24_98)"/>
<path d="M38.4567 21.271C38.4052 21.2237 38.3445 21.1749 38.2795 21.1258C38.2554 21.1078 38.2316 21.0898 38.206 21.0718C37.3745 20.4959 36.3588 20.2493 35.3558 20.3798C39.6075 22.5056 38.4668 29.8263 32.5745 29.5499C32.0498 29.5284 31.5313 29.4283 31.0363 29.2532C30.9206 29.2098 30.8049 29.1625 30.6892 29.111C30.6225 29.0805 30.5557 29.05 30.4898 29.0159L30.498 29.0211C31.3197 29.5819 35.378 30.9523 39.6212 27.496L39.6279 27.4808C39.7337 27.2337 41.138 23.7406 38.4567 21.271Z" fill="url(#paint10_radial_24_98)"/>
<path d="M27.7066 25.1472C27.7066 25.1472 28.2523 23.1138 31.6137 23.1138C31.977 23.1138 33.0167 22.0997 33.0353 21.8056C31.5898 22.3293 29.9968 22.2667 28.5969 21.6312C27.9179 21.2868 27.162 21.122 26.4012 21.1525C25.6405 21.1831 24.9002 21.4079 24.251 21.8056C24.4974 22.3386 24.8931 22.7887 25.3901 23.1013C25.8871 23.4139 26.4641 23.5757 27.0512 23.567C26.8322 25.4998 27.854 27.7532 30.3272 28.935C30.3824 28.9616 30.4343 28.9902 30.491 29.0156C29.0474 28.2698 27.8555 26.8595 27.7066 25.1472Z" fill="url(#paint11_radial_24_98)"/>
<path d="M43.9516 19.6822C43.438 18.4464 42.3961 17.112 41.5802 16.6902C42.1621 17.8172 42.566 19.0276 42.7773 20.2782L42.7795 20.298C41.4429 16.9659 39.1765 15.6224 37.3254 12.6968C37.2318 12.5489 37.1382 12.4006 37.047 12.2442C36.9948 12.1548 36.953 12.0743 36.9167 12.0002C36.84 11.8515 36.7808 11.6944 36.7404 11.532C36.7405 11.5245 36.7378 11.5173 36.7328 11.5116C36.7279 11.506 36.721 11.5024 36.7136 11.5015C36.7063 11.4995 36.6986 11.4995 36.6913 11.5015C36.6898 11.5015 36.6874 11.5042 36.6855 11.5049C36.6837 11.5055 36.6797 11.5082 36.677 11.5094L36.6816 11.5015C33.7124 13.24 32.705 16.4584 32.6123 18.0682C32.7501 18.0587 32.8868 18.0471 33.0277 18.0471C34.0812 18.0491 35.1154 18.3299 36.0252 18.8612C36.935 19.3925 37.6878 20.1552 38.2072 21.0718C37.3757 20.4959 36.36 20.2493 35.357 20.3798C39.6087 22.5056 38.468 29.8263 32.5757 29.5499C32.051 29.5284 31.5325 29.4283 31.0375 29.2532C30.9218 29.2099 30.8061 29.1625 30.6904 29.111C30.6237 29.0805 30.5569 29.05 30.491 29.0159L30.4992 29.0211C30.4419 28.9936 30.3845 28.965 30.3272 28.9353C30.3824 28.9619 30.4342 28.9906 30.491 29.0159C29.0474 28.2698 27.8555 26.8595 27.7066 25.1472C27.7066 25.1472 28.2523 23.1138 31.6137 23.1138C31.9769 23.1138 33.0167 22.0997 33.0353 21.8056C33.0307 21.7096 30.9735 20.8906 30.1713 20.1007C29.7428 19.6783 29.5394 19.4748 29.3591 19.322C29.2617 19.2395 29.1599 19.1623 29.0541 19.0908C28.7848 18.1481 28.7733 17.1503 29.0209 16.2016C27.9305 16.7298 26.9616 17.4786 26.1755 18.4006H26.17C25.7015 17.8068 25.7345 15.8487 25.7613 15.4397C25.6227 15.4954 25.4904 15.5656 25.3667 15.6492C24.9531 15.9444 24.5665 16.2756 24.2113 16.6389C23.8066 17.0493 23.437 17.4928 23.1063 17.9648C22.3463 19.0422 21.8073 20.2592 21.5203 21.5461L21.5044 21.6242C21.4822 21.7282 21.3824 22.2564 21.3681 22.3699C21.3681 22.3611 21.3681 22.3784 21.3681 22.3699C21.2769 22.9152 21.2186 23.4655 21.1936 24.0178V24.0788C21.1962 27.0386 22.309 29.8898 24.3121 32.0688C26.3152 34.2478 29.0628 35.5962 32.012 35.8474C34.9611 36.0985 37.8972 35.2343 40.2399 33.4254C42.5826 31.6165 44.1616 28.9945 44.6647 26.0778C44.6845 25.9253 44.7007 25.7743 44.7183 25.6203C44.9618 23.608 44.6982 21.5667 43.9516 19.6822Z" fill="url(#paint12_linear_24_98)"/>
</g>
<path d="M61.222 14.9375V32H58.2806V14.9375H61.222ZM67.3978 22.0273V32H64.5735V19.3203H67.2337L67.3978 22.0273ZM66.8939 25.1914L65.9798 25.1797C65.9876 24.2812 66.1126 23.457 66.3548 22.707C66.6048 21.957 66.9485 21.3125 67.386 20.7734C67.8314 20.2344 68.3626 19.8203 68.9798 19.5312C69.597 19.2344 70.2845 19.0859 71.0423 19.0859C71.6517 19.0859 72.2025 19.1719 72.6946 19.3438C73.1946 19.5078 73.6204 19.7773 73.972 20.1523C74.3314 20.5273 74.6048 21.0156 74.7923 21.6172C74.9798 22.2109 75.0735 22.9414 75.0735 23.8086V32H72.2376V23.7969C72.2376 23.1875 72.1478 22.707 71.9681 22.3555C71.7962 21.9961 71.5423 21.7422 71.2064 21.5938C70.8782 21.4375 70.4681 21.3594 69.9759 21.3594C69.4915 21.3594 69.0579 21.4609 68.6751 21.6641C68.2923 21.8672 67.9681 22.1445 67.7025 22.4961C67.4446 22.8477 67.2454 23.2539 67.1048 23.7148C66.9642 24.1758 66.8939 24.668 66.8939 25.1914ZM85.0696 28.5664C85.0696 28.2852 84.9993 28.0312 84.8587 27.8047C84.7181 27.5703 84.4485 27.3594 84.0501 27.1719C83.6595 26.9844 83.0814 26.8125 82.3157 26.6562C81.6439 26.5078 81.0267 26.332 80.4642 26.1289C79.9095 25.918 79.4329 25.6641 79.0345 25.3672C78.636 25.0703 78.3275 24.7188 78.1087 24.3125C77.89 23.9062 77.7806 23.4375 77.7806 22.9062C77.7806 22.3906 77.8939 21.9023 78.1204 21.4414C78.347 20.9805 78.6712 20.5742 79.0931 20.2227C79.515 19.8711 80.0267 19.5938 80.6282 19.3906C81.2376 19.1875 81.9173 19.0859 82.6673 19.0859C83.7298 19.0859 84.64 19.2656 85.3978 19.625C86.1634 19.9766 86.7493 20.457 87.1556 21.0664C87.5618 21.668 87.765 22.3477 87.765 23.1055H84.9407C84.9407 22.7695 84.8548 22.457 84.6829 22.168C84.5189 21.8711 84.2689 21.6328 83.9329 21.4531C83.597 21.2656 83.1751 21.1719 82.6673 21.1719C82.1829 21.1719 81.7806 21.25 81.4603 21.4062C81.1478 21.5547 80.9134 21.75 80.7571 21.9922C80.6087 22.2344 80.5345 22.5 80.5345 22.7891C80.5345 23 80.5735 23.1914 80.6517 23.3633C80.7376 23.5273 80.8782 23.6797 81.0735 23.8203C81.2689 23.9531 81.5345 24.0781 81.8704 24.1953C82.2142 24.3125 82.6439 24.4258 83.1595 24.5352C84.1282 24.7383 84.9603 25 85.6556 25.3203C86.3587 25.6328 86.8978 26.0391 87.2728 26.5391C87.6478 27.0312 87.8353 27.6562 87.8353 28.4141C87.8353 28.9766 87.7142 29.4922 87.472 29.9609C87.2376 30.4219 86.8939 30.8242 86.4407 31.168C85.9876 31.5039 85.4446 31.7656 84.8118 31.9531C84.1868 32.1406 83.4837 32.2344 82.7025 32.2344C81.554 32.2344 80.5814 32.0312 79.7845 31.625C78.9876 31.2109 78.3821 30.6836 77.9681 30.043C77.5618 29.3945 77.3587 28.7227 77.3587 28.0273H80.0892C80.1204 28.5508 80.265 28.9688 80.5228 29.2812C80.7884 29.5859 81.1165 29.8086 81.5071 29.9492C81.9056 30.082 82.3157 30.1484 82.7376 30.1484C83.2454 30.1484 83.6712 30.082 84.015 29.9492C84.3587 29.8086 84.6204 29.6211 84.8001 29.3867C84.9798 29.1445 85.0696 28.8711 85.0696 28.5664ZM96.1204 19.3203V21.3828H88.972V19.3203H96.1204ZM91.0345 16.2148H93.8587V28.4961C93.8587 28.8867 93.9134 29.1875 94.0228 29.3984C94.14 29.6016 94.3001 29.7383 94.5032 29.8086C94.7064 29.8789 94.9446 29.9141 95.2181 29.9141C95.4134 29.9141 95.6009 29.9023 95.7806 29.8789C95.9603 29.8555 96.1048 29.832 96.2142 29.8086L96.2259 31.9648C95.9915 32.0352 95.7181 32.0977 95.4056 32.1523C95.1009 32.207 94.7493 32.2344 94.3509 32.2344C93.7025 32.2344 93.1282 32.1211 92.6282 31.8945C92.1282 31.6602 91.7376 31.2812 91.4564 30.7578C91.1751 30.2344 91.0345 29.5391 91.0345 28.6719V16.2148ZM105.449 29.457V23.4102C105.449 22.957 105.367 22.5664 105.202 22.2383C105.038 21.9102 104.788 21.6562 104.452 21.4766C104.124 21.2969 103.71 21.207 103.21 21.207C102.749 21.207 102.351 21.2852 102.015 21.4414C101.679 21.5977 101.417 21.8086 101.23 22.0742C101.042 22.3398 100.949 22.6406 100.949 22.9766H98.136C98.136 22.4766 98.2571 21.9922 98.4993 21.5234C98.7415 21.0547 99.0931 20.6367 99.554 20.2695C100.015 19.9023 100.566 19.6133 101.206 19.4023C101.847 19.1914 102.566 19.0859 103.363 19.0859C104.316 19.0859 105.159 19.2461 105.894 19.5664C106.636 19.8867 107.218 20.3711 107.64 21.0195C108.07 21.6602 108.284 22.4648 108.284 23.4336V29.0703C108.284 29.6484 108.324 30.168 108.402 30.6289C108.488 31.082 108.609 31.4766 108.765 31.8125V32H105.87C105.738 31.6953 105.632 31.3086 105.554 30.8398C105.484 30.3633 105.449 29.9023 105.449 29.457ZM105.859 24.2891L105.882 26.0352H103.855C103.331 26.0352 102.87 26.0859 102.472 26.1875C102.074 26.2812 101.742 26.4219 101.476 26.6094C101.21 26.7969 101.011 27.0234 100.878 27.2891C100.745 27.5547 100.679 27.8555 100.679 28.1914C100.679 28.5273 100.757 28.8359 100.913 29.1172C101.07 29.3906 101.296 29.6055 101.593 29.7617C101.898 29.918 102.265 29.9961 102.695 29.9961C103.273 29.9961 103.777 29.8789 104.206 29.6445C104.644 29.4023 104.988 29.1094 105.238 28.7656C105.488 28.4141 105.62 28.082 105.636 27.7695L106.55 29.0234C106.456 29.3438 106.296 29.6875 106.07 30.0547C105.843 30.4219 105.546 30.7734 105.179 31.1094C104.82 31.4375 104.386 31.707 103.878 31.918C103.378 32.1289 102.8 32.2344 102.144 32.2344C101.316 32.2344 100.577 32.0703 99.929 31.7422C99.2806 31.4062 98.7728 30.957 98.4056 30.3945C98.0384 29.8242 97.8548 29.1797 97.8548 28.4609C97.8548 27.7891 97.9798 27.1953 98.2298 26.6797C98.4876 26.1562 98.8626 25.7188 99.3548 25.3672C99.8548 25.0156 100.464 24.75 101.183 24.5703C101.902 24.3828 102.722 24.2891 103.644 24.2891H105.859ZM114.261 14V32H111.425V14H114.261ZM120.378 14V32H117.542V14H120.378ZM128.909 25.8008V25.5312C128.909 24.6172 129.042 23.7695 129.308 22.9883C129.574 22.1992 129.956 21.5156 130.456 20.9375C130.964 20.3516 131.581 19.8984 132.308 19.5781C133.042 19.25 133.87 19.0859 134.792 19.0859C135.722 19.0859 136.55 19.25 137.277 19.5781C138.011 19.8984 138.632 20.3516 139.14 20.9375C139.648 21.5156 140.034 22.1992 140.3 22.9883C140.566 23.7695 140.699 24.6172 140.699 25.5312V25.8008C140.699 26.7148 140.566 27.5625 140.3 28.3438C140.034 29.125 139.648 29.8086 139.14 30.3945C138.632 30.9727 138.015 31.4258 137.288 31.7539C136.562 32.0742 135.738 32.2344 134.816 32.2344C133.886 32.2344 133.054 32.0742 132.32 31.7539C131.593 31.4258 130.976 30.9727 130.468 30.3945C129.96 29.8086 129.574 29.125 129.308 28.3438C129.042 27.5625 128.909 26.7148 128.909 25.8008ZM131.734 25.5312V25.8008C131.734 26.3711 131.792 26.9102 131.909 27.418C132.027 27.9258 132.21 28.3711 132.46 28.7539C132.71 29.1367 133.031 29.4375 133.421 29.6562C133.812 29.875 134.277 29.9844 134.816 29.9844C135.339 29.9844 135.792 29.875 136.175 29.6562C136.566 29.4375 136.886 29.1367 137.136 28.7539C137.386 28.3711 137.57 27.9258 137.687 27.418C137.812 26.9102 137.874 26.3711 137.874 25.8008V25.5312C137.874 24.9688 137.812 24.4375 137.687 23.9375C137.57 23.4297 137.382 22.9805 137.124 22.5898C136.874 22.1992 136.554 21.8945 136.163 21.6758C135.781 21.4492 135.324 21.3359 134.792 21.3359C134.261 21.3359 133.8 21.4492 133.409 21.6758C133.027 21.8945 132.71 22.1992 132.46 22.5898C132.21 22.9805 132.027 23.4297 131.909 23.9375C131.792 24.4375 131.734 24.9688 131.734 25.5312ZM145.867 22.0273V32H143.042V19.3203H145.702L145.867 22.0273ZM145.363 25.1914L144.449 25.1797C144.456 24.2812 144.581 23.457 144.824 22.707C145.074 21.957 145.417 21.3125 145.855 20.7734C146.3 20.2344 146.831 19.8203 147.449 19.5312C148.066 19.2344 148.753 19.0859 149.511 19.0859C150.12 19.0859 150.671 19.1719 151.163 19.3438C151.663 19.5078 152.089 19.7773 152.441 20.1523C152.8 20.5273 153.074 21.0156 153.261 21.6172C153.449 22.2109 153.542 22.9414 153.542 23.8086V32H150.706V23.7969C150.706 23.1875 150.617 22.707 150.437 22.3555C150.265 21.9961 150.011 21.7422 149.675 21.5938C149.347 21.4375 148.937 21.3594 148.445 21.3594C147.96 21.3594 147.527 21.4609 147.144 21.6641C146.761 21.8672 146.437 22.1445 146.171 22.4961C145.913 22.8477 145.714 23.2539 145.574 23.7148C145.433 24.1758 145.363 24.668 145.363 25.1914ZM165.624 14.9375V32H162.683V14.9375H165.624ZM172.585 22.4023V24.7344H164.874V22.4023H172.585ZM173.558 14.9375V17.2812H164.874V14.9375H173.558ZM178.644 19.3203V32H175.808V19.3203H178.644ZM175.62 15.9922C175.62 15.5625 175.761 15.207 176.042 14.9258C176.331 14.6367 176.73 14.4922 177.238 14.4922C177.738 14.4922 178.132 14.6367 178.421 14.9258C178.71 15.207 178.855 15.5625 178.855 15.9922C178.855 16.4141 178.71 16.7656 178.421 17.0469C178.132 17.3281 177.738 17.4688 177.238 17.4688C176.73 17.4688 176.331 17.3281 176.042 17.0469C175.761 16.7656 175.62 16.4141 175.62 15.9922ZM184.574 21.7344V32H181.749V19.3203H184.445L184.574 21.7344ZM188.452 19.2383L188.429 21.8633C188.257 21.832 188.07 21.8086 187.867 21.793C187.671 21.7773 187.476 21.7695 187.281 21.7695C186.796 21.7695 186.37 21.8398 186.003 21.9805C185.636 22.1133 185.327 22.3086 185.077 22.5664C184.835 22.8164 184.648 23.1211 184.515 23.4805C184.382 23.8398 184.304 24.2422 184.281 24.6875L183.636 24.7344C183.636 23.9375 183.714 23.1992 183.87 22.5195C184.027 21.8398 184.261 21.2422 184.574 20.7266C184.894 20.2109 185.292 19.8086 185.769 19.5195C186.253 19.2305 186.812 19.0859 187.445 19.0859C187.617 19.0859 187.8 19.1016 187.995 19.1328C188.199 19.1641 188.351 19.1992 188.452 19.2383ZM195.577 32.2344C194.64 32.2344 193.792 32.082 193.034 31.7773C192.284 31.4648 191.644 31.0312 191.113 30.4766C190.589 29.9219 190.187 29.2695 189.906 28.5195C189.624 27.7695 189.484 26.9609 189.484 26.0938V25.625C189.484 24.6328 189.628 23.7344 189.917 22.9297C190.206 22.125 190.609 21.4375 191.124 20.8672C191.64 20.2891 192.249 19.8477 192.952 19.543C193.656 19.2383 194.417 19.0859 195.238 19.0859C196.144 19.0859 196.937 19.2383 197.617 19.543C198.296 19.8477 198.859 20.2773 199.304 20.832C199.757 21.3789 200.093 22.0312 200.312 22.7891C200.538 23.5469 200.652 24.3828 200.652 25.2969V26.5039H190.855V24.4766H197.863V24.2539C197.847 23.7461 197.745 23.2695 197.558 22.8242C197.378 22.3789 197.101 22.0195 196.726 21.7461C196.351 21.4727 195.851 21.3359 195.226 21.3359C194.757 21.3359 194.339 21.4375 193.972 21.6406C193.613 21.8359 193.312 22.1211 193.07 22.4961C192.827 22.8711 192.64 23.3242 192.507 23.8555C192.382 24.3789 192.32 24.9688 192.32 25.625V26.0938C192.32 26.6484 192.394 27.1641 192.542 27.6406C192.699 28.1094 192.925 28.5195 193.222 28.8711C193.519 29.2227 193.878 29.5 194.3 29.7031C194.722 29.8984 195.202 29.9961 195.742 29.9961C196.421 29.9961 197.027 29.8594 197.558 29.5859C198.089 29.3125 198.55 28.9258 198.941 28.4258L200.429 29.8672C200.156 30.2656 199.8 30.6484 199.363 31.0156C198.925 31.375 198.39 31.668 197.757 31.8945C197.132 32.1211 196.406 32.2344 195.577 32.2344ZM206.675 32H203.851V18.1016C203.851 17.1562 204.027 16.3633 204.378 15.7227C204.738 15.0742 205.249 14.5859 205.913 14.2578C206.577 13.9219 207.363 13.7539 208.269 13.7539C208.55 13.7539 208.827 13.7734 209.101 13.8125C209.374 13.8438 209.64 13.8945 209.898 13.9648L209.827 16.1445C209.671 16.1055 209.499 16.0781 209.312 16.0625C209.132 16.0469 208.937 16.0391 208.726 16.0391C208.296 16.0391 207.925 16.1211 207.613 16.2852C207.308 16.4414 207.074 16.6719 206.909 16.9766C206.753 17.2812 206.675 17.6562 206.675 18.1016V32ZM209.288 19.3203V21.3828H201.906V19.3203H209.288ZM210.8 25.8008V25.5312C210.8 24.6172 210.933 23.7695 211.199 22.9883C211.464 22.1992 211.847 21.5156 212.347 20.9375C212.855 20.3516 213.472 19.8984 214.199 19.5781C214.933 19.25 215.761 19.0859 216.683 19.0859C217.613 19.0859 218.441 19.25 219.167 19.5781C219.902 19.8984 220.523 20.3516 221.031 20.9375C221.538 21.5156 221.925 22.1992 222.191 22.9883C222.456 23.7695 222.589 24.6172 222.589 25.5312V25.8008C222.589 26.7148 222.456 27.5625 222.191 28.3438C221.925 29.125 221.538 29.8086 221.031 30.3945C220.523 30.9727 219.906 31.4258 219.179 31.7539C218.452 32.0742 217.628 32.2344 216.706 32.2344C215.777 32.2344 214.945 32.0742 214.21 31.7539C213.484 31.4258 212.867 30.9727 212.359 30.3945C211.851 29.8086 211.464 29.125 211.199 28.3438C210.933 27.5625 210.8 26.7148 210.8 25.8008ZM213.624 25.5312V25.8008C213.624 26.3711 213.683 26.9102 213.8 27.418C213.917 27.9258 214.101 28.3711 214.351 28.7539C214.601 29.1367 214.921 29.4375 215.312 29.6562C215.702 29.875 216.167 29.9844 216.706 29.9844C217.23 29.9844 217.683 29.875 218.066 29.6562C218.456 29.4375 218.777 29.1367 219.027 28.7539C219.277 28.3711 219.46 27.9258 219.577 27.418C219.702 26.9102 219.765 26.3711 219.765 25.8008V25.5312C219.765 24.9688 219.702 24.4375 219.577 23.9375C219.46 23.4297 219.273 22.9805 219.015 22.5898C218.765 22.1992 218.445 21.8945 218.054 21.6758C217.671 21.4492 217.214 21.3359 216.683 21.3359C216.152 21.3359 215.691 21.4492 215.3 21.6758C214.917 21.8945 214.601 22.1992 214.351 22.5898C214.101 22.9805 213.917 23.4297 213.8 23.9375C213.683 24.4375 213.624 24.9688 213.624 25.5312ZM226.855 19.3203L229.269 23.5273L231.73 19.3203H234.835L230.992 25.543L234.988 32H231.882L229.304 27.6172L226.726 32H223.609L227.593 25.543L223.761 19.3203H226.855Z" fill="white"/>
<defs>
<linearGradient id="paint0_linear_24_98" x1="254.656" y1="-4.03574e-05" x2="-8.29578" y2="51.5804" gradientUnits="userSpaceOnUse">
<stop stop-color="#FF3C43"/>
<stop offset="1" stop-color="#6760E1"/>
</linearGradient>
<linearGradient id="paint1_linear_24_98" x1="42.3869" y1="15.2786" x2="22.7635" y2="34.2116" gradientUnits="userSpaceOnUse">
<stop offset="0.048" stop-color="#FFF44F"/>
<stop offset="0.111" stop-color="#FFE847"/>
<stop offset="0.225" stop-color="#FFC830"/>
<stop offset="0.368" stop-color="#FF980E"/>
<stop offset="0.401" stop-color="#FF8B16"/>
<stop offset="0.462" stop-color="#FF672A"/>
<stop offset="0.534" stop-color="#FF3647"/>
<stop offset="0.705" stop-color="#E31587"/>
</linearGradient>
<radialGradient id="paint2_radial_24_98" cx="0" cy="0" r="1" gradientUnits="userSpaceOnUse" gradientTransform="translate(41.4802 14.2068) scale(24.6432)">
<stop offset="0.129" stop-color="#FFBD4F"/>
<stop offset="0.186" stop-color="#FFAC31"/>
<stop offset="0.247" stop-color="#FF9D17"/>
<stop offset="0.283" stop-color="#FF980E"/>
<stop offset="0.403" stop-color="#FF563B"/>
<stop offset="0.467" stop-color="#FF3750"/>
<stop offset="0.71" stop-color="#F5156C"/>
<stop offset="0.782" stop-color="#EB0878"/>
<stop offset="0.86" stop-color="#E50080"/>
</radialGradient>
<radialGradient id="paint3_radial_24_98" cx="0" cy="0" r="1" gradientUnits="userSpaceOnUse" gradientTransform="translate(32.4753 24.2817) scale(24.6432)">
<stop offset="0.3" stop-color="#960E18"/>
<stop offset="0.351" stop-color="#B11927" stop-opacity="0.74"/>
<stop offset="0.435" stop-color="#DB293D" stop-opacity="0.343"/>
<stop offset="0.497" stop-color="#F5334B" stop-opacity="0.094"/>
<stop offset="0.53" stop-color="#FF3750" stop-opacity="0"/>
</radialGradient>
<radialGradient id="paint4_radial_24_98" cx="0" cy="0" r="1" gradientUnits="userSpaceOnUse" gradientTransform="translate(35.4463 8.61438) scale(17.8529)">
<stop offset="0.132" stop-color="#FFF44F"/>
<stop offset="0.252" stop-color="#FFDC3E"/>
<stop offset="0.506" stop-color="#FF9D12"/>
<stop offset="0.526" stop-color="#FF980E"/>
</radialGradient>
<radialGradient id="paint5_radial_24_98" cx="0" cy="0" r="1" gradientUnits="userSpaceOnUse" gradientTransform="translate(29.7496 30.7186) scale(11.7337)">
<stop offset="0.353" stop-color="#3A8EE6"/>
<stop offset="0.472" stop-color="#5C79F0"/>
<stop offset="0.669" stop-color="#9059FF"/>
<stop offset="1" stop-color="#C139E6"/>
</radialGradient>
<radialGradient id="paint6_radial_24_98" cx="0" cy="0" r="1" gradientUnits="userSpaceOnUse" gradientTransform="translate(33.8219 22.2621) rotate(-13.5916) scale(6.22113 7.28339)">
<stop offset="0.206" stop-color="#9059FF" stop-opacity="0"/>
<stop offset="0.278" stop-color="#8C4FF3" stop-opacity="0.064"/>
<stop offset="0.747" stop-color="#7716A8" stop-opacity="0.45"/>
<stop offset="0.975" stop-color="#6E008B" stop-opacity="0.6"/>
</radialGradient>
<radialGradient id="paint7_radial_24_98" cx="0" cy="0" r="1" gradientUnits="userSpaceOnUse" gradientTransform="translate(32.1642 13.1986) scale(8.4412)">
<stop stop-color="#FFE226"/>
<stop offset="0.121" stop-color="#FFDB27"/>
<stop offset="0.295" stop-color="#FFC82A"/>
<stop offset="0.502" stop-color="#FFA930"/>
<stop offset="0.732" stop-color="#FF7E37"/>
<stop offset="0.792" stop-color="#FF7139"/>
</radialGradient>
<radialGradient id="paint8_radial_24_98" cx="0" cy="0" r="1" gradientUnits="userSpaceOnUse" gradientTransform="translate(38.7992 7.84444) scale(36.0148)">
<stop offset="0.113" stop-color="#FFF44F"/>
<stop offset="0.456" stop-color="#FF980E"/>
<stop offset="0.622" stop-color="#FF5634"/>
<stop offset="0.716" stop-color="#FF3647"/>
<stop offset="0.904" stop-color="#E31587"/>
</radialGradient>
<radialGradient id="paint9_radial_24_98" cx="0" cy="0" r="1" gradientUnits="userSpaceOnUse" gradientTransform="translate(35.7638 9.84702) rotate(83.976) scale(26.3961 17.3235)">
<stop stop-color="#FFF44F"/>
<stop offset="0.06" stop-color="#FFE847"/>
<stop offset="0.168" stop-color="#FFC830"/>
<stop offset="0.304" stop-color="#FF980E"/>
<stop offset="0.356" stop-color="#FF8B16"/>
<stop offset="0.455" stop-color="#FF672A"/>
<stop offset="0.57" stop-color="#FF3647"/>
<stop offset="0.737" stop-color="#E31587"/>
</radialGradient>
<radialGradient id="paint10_radial_24_98" cx="0" cy="0" r="1" gradientUnits="userSpaceOnUse" gradientTransform="translate(31.9654 16.3251) scale(22.4847)">
<stop offset="0.137" stop-color="#FFF44F"/>
<stop offset="0.48" stop-color="#FF980E"/>
<stop offset="0.592" stop-color="#FF5634"/>
<stop offset="0.655" stop-color="#FF3647"/>
<stop offset="0.904" stop-color="#E31587"/>
</radialGradient>
<radialGradient id="paint11_radial_24_98" cx="0" cy="0" r="1" gradientUnits="userSpaceOnUse" gradientTransform="translate(37.9007 17.6411) scale(24.6093 24.6093)">
<stop offset="0.094" stop-color="#FFF44F"/>
<stop offset="0.231" stop-color="#FFE141"/>
<stop offset="0.509" stop-color="#FFAF1E"/>
<stop offset="0.626" stop-color="#FF980E"/>
</radialGradient>
<linearGradient id="paint12_linear_24_98" x1="42.1512" y1="15.1774" x2="25.4536" y2="31.8746" gradientUnits="userSpaceOnUse">
<stop offset="0.167" stop-color="#FFF44F" stop-opacity="0.8"/>
<stop offset="0.266" stop-color="#FFF44F" stop-opacity="0.634"/>
<stop offset="0.489" stop-color="#FFF44F" stop-opacity="0.217"/>
<stop offset="0.6" stop-color="#FFF44F" stop-opacity="0"/>
</linearGradient>
<clipPath id="clip0_24_98">
<rect width="26.6627" height="25" fill="white" transform="translate(19.6686 11.5)"/>
</clipPath>
</defs>
</svg>
