<svg width="255" height="50" viewBox="0 0 255 50" fill="none" xmlns="http://www.w3.org/2000/svg">
<rect width="255" height="50" fill="url(#paint0_linear_137_72)"/>
<path d="M38 12.5C31.0919 12.5 25.5 18.0919 25.5 25C25.5 31.9081 31.0919 37.5 38 37.5C44.9081 37.5 50.5 31.9081 50.5 25C50.5 18.0919 44.9081 12.5 38 12.5ZM38 34.375C34.7106 34.375 31.75 30.065 31.75 25C31.75 19.935 34.7106 15.625 38 15.625C41.2894 15.625 44.25 19.935 44.25 25C44.25 30.065 41.2894 34.375 38 34.375Z" fill="#FF1744"/>
<path d="M45.8525 15.2781C44.5081 14.3575 42.9313 13.75 41.2894 13.75C38.8219 13.75 36.5869 14.9875 34.9356 16.9244C35.8581 16.1063 36.9094 15.625 38 15.625C41.2894 15.625 44.25 19.935 44.25 25C44.25 30.065 41.2894 34.375 38 34.375C36.9094 34.375 35.8581 33.8938 34.9356 33.0756C36.5869 35.0125 38.8219 36.25 41.2894 36.25C42.9306 36.25 44.5081 35.6425 45.8519 34.7225C48.6856 32.4319 50.5 28.9312 50.5 25C50.5 21.0694 48.6856 17.5687 45.8525 15.2781Z" fill="#D50000"/>
<path d="M68.1172 15.9375V33H65.1758V15.9375H68.1172ZM74.293 23.0273V33H71.4688V20.3203H74.1289L74.293 23.0273ZM73.7891 26.1914L72.875 26.1797C72.8828 25.2812 73.0078 24.457 73.25 23.707C73.5 22.957 73.8438 22.3125 74.2812 21.7734C74.7266 21.2344 75.2578 20.8203 75.875 20.5312C76.4922 20.2344 77.1797 20.0859 77.9375 20.0859C78.5469 20.0859 79.0977 20.1719 79.5898 20.3438C80.0898 20.5078 80.5156 20.7773 80.8672 21.1523C81.2266 21.5273 81.5 22.0156 81.6875 22.6172C81.875 23.2109 81.9688 23.9414 81.9688 24.8086V33H79.1328V24.7969C79.1328 24.1875 79.043 23.707 78.8633 23.3555C78.6914 22.9961 78.4375 22.7422 78.1016 22.5938C77.7734 22.4375 77.3633 22.3594 76.8711 22.3594C76.3867 22.3594 75.9531 22.4609 75.5703 22.6641C75.1875 22.8672 74.8633 23.1445 74.5977 23.4961C74.3398 23.8477 74.1406 24.2539 74 24.7148C73.8594 25.1758 73.7891 25.668 73.7891 26.1914ZM91.9648 29.5664C91.9648 29.2852 91.8945 29.0312 91.7539 28.8047C91.6133 28.5703 91.3438 28.3594 90.9453 28.1719C90.5547 27.9844 89.9766 27.8125 89.2109 27.6562C88.5391 27.5078 87.9219 27.332 87.3594 27.1289C86.8047 26.918 86.3281 26.6641 85.9297 26.3672C85.5312 26.0703 85.2227 25.7188 85.0039 25.3125C84.7852 24.9062 84.6758 24.4375 84.6758 23.9062C84.6758 23.3906 84.7891 22.9023 85.0156 22.4414C85.2422 21.9805 85.5664 21.5742 85.9883 21.2227C86.4102 20.8711 86.9219 20.5938 87.5234 20.3906C88.1328 20.1875 88.8125 20.0859 89.5625 20.0859C90.625 20.0859 91.5352 20.2656 92.293 20.625C93.0586 20.9766 93.6445 21.457 94.0508 22.0664C94.457 22.668 94.6602 23.3477 94.6602 24.1055H91.8359C91.8359 23.7695 91.75 23.457 91.5781 23.168C91.4141 22.8711 91.1641 22.6328 90.8281 22.4531C90.4922 22.2656 90.0703 22.1719 89.5625 22.1719C89.0781 22.1719 88.6758 22.25 88.3555 22.4062C88.043 22.5547 87.8086 22.75 87.6523 22.9922C87.5039 23.2344 87.4297 23.5 87.4297 23.7891C87.4297 24 87.4688 24.1914 87.5469 24.3633C87.6328 24.5273 87.7734 24.6797 87.9688 24.8203C88.1641 24.9531 88.4297 25.0781 88.7656 25.1953C89.1094 25.3125 89.5391 25.4258 90.0547 25.5352C91.0234 25.7383 91.8555 26 92.5508 26.3203C93.2539 26.6328 93.793 27.0391 94.168 27.5391C94.543 28.0312 94.7305 28.6562 94.7305 29.4141C94.7305 29.9766 94.6094 30.4922 94.3672 30.9609C94.1328 31.4219 93.7891 31.8242 93.3359 32.168C92.8828 32.5039 92.3398 32.7656 91.707 32.9531C91.082 33.1406 90.3789 33.2344 89.5977 33.2344C88.4492 33.2344 87.4766 33.0312 86.6797 32.625C85.8828 32.2109 85.2773 31.6836 84.8633 31.043C84.457 30.3945 84.2539 29.7227 84.2539 29.0273H86.9844C87.0156 29.5508 87.1602 29.9688 87.418 30.2812C87.6836 30.5859 88.0117 30.8086 88.4023 30.9492C88.8008 31.082 89.2109 31.1484 89.6328 31.1484C90.1406 31.1484 90.5664 31.082 90.9102 30.9492C91.2539 30.8086 91.5156 30.6211 91.6953 30.3867C91.875 30.1445 91.9648 29.8711 91.9648 29.5664ZM103.016 20.3203V22.3828H95.8672V20.3203H103.016ZM97.9297 17.2148H100.754V29.4961C100.754 29.8867 100.809 30.1875 100.918 30.3984C101.035 30.6016 101.195 30.7383 101.398 30.8086C101.602 30.8789 101.84 30.9141 102.113 30.9141C102.309 30.9141 102.496 30.9023 102.676 30.8789C102.855 30.8555 103 30.832 103.109 30.8086L103.121 32.9648C102.887 33.0352 102.613 33.0977 102.301 33.1523C101.996 33.207 101.645 33.2344 101.246 33.2344C100.598 33.2344 100.023 33.1211 99.5234 32.8945C99.0234 32.6602 98.6328 32.2812 98.3516 31.7578C98.0703 31.2344 97.9297 30.5391 97.9297 29.6719V17.2148ZM112.344 30.457V24.4102C112.344 23.957 112.262 23.5664 112.098 23.2383C111.934 22.9102 111.684 22.6562 111.348 22.4766C111.02 22.2969 110.605 22.207 110.105 22.207C109.645 22.207 109.246 22.2852 108.91 22.4414C108.574 22.5977 108.312 22.8086 108.125 23.0742C107.938 23.3398 107.844 23.6406 107.844 23.9766H105.031C105.031 23.4766 105.152 22.9922 105.395 22.5234C105.637 22.0547 105.988 21.6367 106.449 21.2695C106.91 20.9023 107.461 20.6133 108.102 20.4023C108.742 20.1914 109.461 20.0859 110.258 20.0859C111.211 20.0859 112.055 20.2461 112.789 20.5664C113.531 20.8867 114.113 21.3711 114.535 22.0195C114.965 22.6602 115.18 23.4648 115.18 24.4336V30.0703C115.18 30.6484 115.219 31.168 115.297 31.6289C115.383 32.082 115.504 32.4766 115.66 32.8125V33H112.766C112.633 32.6953 112.527 32.3086 112.449 31.8398C112.379 31.3633 112.344 30.9023 112.344 30.457ZM112.754 25.2891L112.777 27.0352H110.75C110.227 27.0352 109.766 27.0859 109.367 27.1875C108.969 27.2812 108.637 27.4219 108.371 27.6094C108.105 27.7969 107.906 28.0234 107.773 28.2891C107.641 28.5547 107.574 28.8555 107.574 29.1914C107.574 29.5273 107.652 29.8359 107.809 30.1172C107.965 30.3906 108.191 30.6055 108.488 30.7617C108.793 30.918 109.16 30.9961 109.59 30.9961C110.168 30.9961 110.672 30.8789 111.102 30.6445C111.539 30.4023 111.883 30.1094 112.133 29.7656C112.383 29.4141 112.516 29.082 112.531 28.7695L113.445 30.0234C113.352 30.3438 113.191 30.6875 112.965 31.0547C112.738 31.4219 112.441 31.7734 112.074 32.1094C111.715 32.4375 111.281 32.707 110.773 32.918C110.273 33.1289 109.695 33.2344 109.039 33.2344C108.211 33.2344 107.473 33.0703 106.824 32.7422C106.176 32.4062 105.668 31.957 105.301 31.3945C104.934 30.8242 104.75 30.1797 104.75 29.4609C104.75 28.7891 104.875 28.1953 105.125 27.6797C105.383 27.1562 105.758 26.7188 106.25 26.3672C106.75 26.0156 107.359 25.75 108.078 25.5703C108.797 25.3828 109.617 25.2891 110.539 25.2891H112.754ZM121.156 15V33H118.32V15H121.156ZM127.273 15V33H124.438V15H127.273ZM135.805 26.8008V26.5312C135.805 25.6172 135.938 24.7695 136.203 23.9883C136.469 23.1992 136.852 22.5156 137.352 21.9375C137.859 21.3516 138.477 20.8984 139.203 20.5781C139.938 20.25 140.766 20.0859 141.688 20.0859C142.617 20.0859 143.445 20.25 144.172 20.5781C144.906 20.8984 145.527 21.3516 146.035 21.9375C146.543 22.5156 146.93 23.1992 147.195 23.9883C147.461 24.7695 147.594 25.6172 147.594 26.5312V26.8008C147.594 27.7148 147.461 28.5625 147.195 29.3438C146.93 30.125 146.543 30.8086 146.035 31.3945C145.527 31.9727 144.91 32.4258 144.184 32.7539C143.457 33.0742 142.633 33.2344 141.711 33.2344C140.781 33.2344 139.949 33.0742 139.215 32.7539C138.488 32.4258 137.871 31.9727 137.363 31.3945C136.855 30.8086 136.469 30.125 136.203 29.3438C135.938 28.5625 135.805 27.7148 135.805 26.8008ZM138.629 26.5312V26.8008C138.629 27.3711 138.688 27.9102 138.805 28.418C138.922 28.9258 139.105 29.3711 139.355 29.7539C139.605 30.1367 139.926 30.4375 140.316 30.6562C140.707 30.875 141.172 30.9844 141.711 30.9844C142.234 30.9844 142.688 30.875 143.07 30.6562C143.461 30.4375 143.781 30.1367 144.031 29.7539C144.281 29.3711 144.465 28.9258 144.582 28.418C144.707 27.9102 144.77 27.3711 144.77 26.8008V26.5312C144.77 25.9688 144.707 25.4375 144.582 24.9375C144.465 24.4297 144.277 23.9805 144.02 23.5898C143.77 23.1992 143.449 22.8945 143.059 22.6758C142.676 22.4492 142.219 22.3359 141.688 22.3359C141.156 22.3359 140.695 22.4492 140.305 22.6758C139.922 22.8945 139.605 23.1992 139.355 23.5898C139.105 23.9805 138.922 24.4297 138.805 24.9375C138.688 25.4375 138.629 25.9688 138.629 26.5312ZM152.762 23.0273V33H149.938V20.3203H152.598L152.762 23.0273ZM152.258 26.1914L151.344 26.1797C151.352 25.2812 151.477 24.457 151.719 23.707C151.969 22.957 152.312 22.3125 152.75 21.7734C153.195 21.2344 153.727 20.8203 154.344 20.5312C154.961 20.2344 155.648 20.0859 156.406 20.0859C157.016 20.0859 157.566 20.1719 158.059 20.3438C158.559 20.5078 158.984 20.7773 159.336 21.1523C159.695 21.5273 159.969 22.0156 160.156 22.6172C160.344 23.2109 160.438 23.9414 160.438 24.8086V33H157.602V24.7969C157.602 24.1875 157.512 23.707 157.332 23.3555C157.16 22.9961 156.906 22.7422 156.57 22.5938C156.242 22.4375 155.832 22.3594 155.34 22.3594C154.855 22.3594 154.422 22.4609 154.039 22.6641C153.656 22.8672 153.332 23.1445 153.066 23.4961C152.809 23.8477 152.609 24.2539 152.469 24.7148C152.328 25.1758 152.258 25.668 152.258 26.1914ZM183.184 24V24.9375C183.184 26.2266 183.016 27.3828 182.68 28.4062C182.344 29.4297 181.863 30.3008 181.238 31.0195C180.621 31.7383 179.879 32.2891 179.012 32.6719C178.145 33.0469 177.184 33.2344 176.129 33.2344C175.082 33.2344 174.125 33.0469 173.258 32.6719C172.398 32.2891 171.652 31.7383 171.02 31.0195C170.387 30.3008 169.895 29.4297 169.543 28.4062C169.199 27.3828 169.027 26.2266 169.027 24.9375V24C169.027 22.7109 169.199 21.5586 169.543 20.543C169.887 19.5195 170.371 18.6484 170.996 17.9297C171.629 17.2031 172.375 16.6523 173.234 16.2773C174.102 15.8945 175.059 15.7031 176.105 15.7031C177.16 15.7031 178.121 15.8945 178.988 16.2773C179.855 16.6523 180.602 17.2031 181.227 17.9297C181.852 18.6484 182.332 19.5195 182.668 20.543C183.012 21.5586 183.184 22.7109 183.184 24ZM180.242 24.9375V23.9766C180.242 23.0234 180.148 22.1836 179.961 21.457C179.781 20.7227 179.512 20.1094 179.152 19.6172C178.801 19.1172 178.367 18.7422 177.852 18.4922C177.336 18.2344 176.754 18.1055 176.105 18.1055C175.457 18.1055 174.879 18.2344 174.371 18.4922C173.863 18.7422 173.43 19.1172 173.07 19.6172C172.719 20.1094 172.449 20.7227 172.262 21.457C172.074 22.1836 171.98 23.0234 171.98 23.9766V24.9375C171.98 25.8906 172.074 26.7344 172.262 27.4688C172.449 28.2031 172.723 28.8242 173.082 29.332C173.449 29.832 173.887 30.2109 174.395 30.4688C174.902 30.7188 175.48 30.8438 176.129 30.8438C176.785 30.8438 177.367 30.7188 177.875 30.4688C178.383 30.2109 178.812 29.832 179.164 29.332C179.516 28.8242 179.781 28.2031 179.961 27.4688C180.148 26.7344 180.242 25.8906 180.242 24.9375ZM188.68 22.7578V37.875H185.855V20.3203H188.457L188.68 22.7578ZM196.941 26.543V26.7891C196.941 27.7109 196.832 28.5664 196.613 29.3555C196.402 30.1367 196.086 30.8203 195.664 31.4062C195.25 31.9844 194.738 32.4336 194.129 32.7539C193.52 33.0742 192.816 33.2344 192.02 33.2344C191.23 33.2344 190.539 33.0898 189.945 32.8008C189.359 32.5039 188.863 32.0859 188.457 31.5469C188.051 31.0078 187.723 30.375 187.473 29.6484C187.23 28.9141 187.059 28.1094 186.957 27.2344V26.2852C187.059 25.3555 187.23 24.5117 187.473 23.7539C187.723 22.9961 188.051 22.3438 188.457 21.7969C188.863 21.25 189.359 20.8281 189.945 20.5312C190.531 20.2344 191.215 20.0859 191.996 20.0859C192.793 20.0859 193.5 20.2422 194.117 20.5547C194.734 20.8594 195.254 21.2969 195.676 21.8672C196.098 22.4297 196.414 23.1094 196.625 23.9062C196.836 24.6953 196.941 25.5742 196.941 26.543ZM194.117 26.7891V26.543C194.117 25.957 194.062 25.4141 193.953 24.9141C193.844 24.4062 193.672 23.9609 193.438 23.5781C193.203 23.1953 192.902 22.8984 192.535 22.6875C192.176 22.4688 191.742 22.3594 191.234 22.3594C190.734 22.3594 190.305 22.4453 189.945 22.6172C189.586 22.7812 189.285 23.0117 189.043 23.3086C188.801 23.6055 188.613 23.9531 188.48 24.3516C188.348 24.7422 188.254 25.168 188.199 25.6289V27.9023C188.293 28.4648 188.453 28.9805 188.68 29.4492C188.906 29.918 189.227 30.293 189.641 30.5742C190.062 30.8477 190.602 30.9844 191.258 30.9844C191.766 30.9844 192.199 30.875 192.559 30.6562C192.918 30.4375 193.211 30.1367 193.438 29.7539C193.672 29.3633 193.844 28.9141 193.953 28.4062C194.062 27.8984 194.117 27.3594 194.117 26.7891ZM204.934 33.2344C203.996 33.2344 203.148 33.082 202.391 32.7773C201.641 32.4648 201 32.0312 200.469 31.4766C199.945 30.9219 199.543 30.2695 199.262 29.5195C198.98 28.7695 198.84 27.9609 198.84 27.0938V26.625C198.84 25.6328 198.984 24.7344 199.273 23.9297C199.562 23.125 199.965 22.4375 200.48 21.8672C200.996 21.2891 201.605 20.8477 202.309 20.543C203.012 20.2383 203.773 20.0859 204.594 20.0859C205.5 20.0859 206.293 20.2383 206.973 20.543C207.652 20.8477 208.215 21.2773 208.66 21.832C209.113 22.3789 209.449 23.0312 209.668 23.7891C209.895 24.5469 210.008 25.3828 210.008 26.2969V27.5039H200.211V25.4766H207.219V25.2539C207.203 24.7461 207.102 24.2695 206.914 23.8242C206.734 23.3789 206.457 23.0195 206.082 22.7461C205.707 22.4727 205.207 22.3359 204.582 22.3359C204.113 22.3359 203.695 22.4375 203.328 22.6406C202.969 22.8359 202.668 23.1211 202.426 23.4961C202.184 23.8711 201.996 24.3242 201.863 24.8555C201.738 25.3789 201.676 25.9688 201.676 26.625V27.0938C201.676 27.6484 201.75 28.1641 201.898 28.6406C202.055 29.1094 202.281 29.5195 202.578 29.8711C202.875 30.2227 203.234 30.5 203.656 30.7031C204.078 30.8984 204.559 30.9961 205.098 30.9961C205.777 30.9961 206.383 30.8594 206.914 30.5859C207.445 30.3125 207.906 29.9258 208.297 29.4258L209.785 30.8672C209.512 31.2656 209.156 31.6484 208.719 32.0156C208.281 32.375 207.746 32.668 207.113 32.8945C206.488 33.1211 205.762 33.2344 204.934 33.2344ZM215.047 22.7344V33H212.223V20.3203H214.918L215.047 22.7344ZM218.926 20.2383L218.902 22.8633C218.73 22.832 218.543 22.8086 218.34 22.793C218.145 22.7773 217.949 22.7695 217.754 22.7695C217.27 22.7695 216.844 22.8398 216.477 22.9805C216.109 23.1133 215.801 23.3086 215.551 23.5664C215.309 23.8164 215.121 24.1211 214.988 24.4805C214.855 24.8398 214.777 25.2422 214.754 25.6875L214.109 25.7344C214.109 24.9375 214.188 24.1992 214.344 23.5195C214.5 22.8398 214.734 22.2422 215.047 21.7266C215.367 21.2109 215.766 20.8086 216.242 20.5195C216.727 20.2305 217.285 20.0859 217.918 20.0859C218.09 20.0859 218.273 20.1016 218.469 20.1328C218.672 20.1641 218.824 20.1992 218.926 20.2383ZM227.422 30.457V24.4102C227.422 23.957 227.34 23.5664 227.176 23.2383C227.012 22.9102 226.762 22.6562 226.426 22.4766C226.098 22.2969 225.684 22.207 225.184 22.207C224.723 22.207 224.324 22.2852 223.988 22.4414C223.652 22.5977 223.391 22.8086 223.203 23.0742C223.016 23.3398 222.922 23.6406 222.922 23.9766H220.109C220.109 23.4766 220.23 22.9922 220.473 22.5234C220.715 22.0547 221.066 21.6367 221.527 21.2695C221.988 20.9023 222.539 20.6133 223.18 20.4023C223.82 20.1914 224.539 20.0859 225.336 20.0859C226.289 20.0859 227.133 20.2461 227.867 20.5664C228.609 20.8867 229.191 21.3711 229.613 22.0195C230.043 22.6602 230.258 23.4648 230.258 24.4336V30.0703C230.258 30.6484 230.297 31.168 230.375 31.6289C230.461 32.082 230.582 32.4766 230.738 32.8125V33H227.844C227.711 32.6953 227.605 32.3086 227.527 31.8398C227.457 31.3633 227.422 30.9023 227.422 30.457ZM227.832 25.2891L227.855 27.0352H225.828C225.305 27.0352 224.844 27.0859 224.445 27.1875C224.047 27.2812 223.715 27.4219 223.449 27.6094C223.184 27.7969 222.984 28.0234 222.852 28.2891C222.719 28.5547 222.652 28.8555 222.652 29.1914C222.652 29.5273 222.73 29.8359 222.887 30.1172C223.043 30.3906 223.27 30.6055 223.566 30.7617C223.871 30.918 224.238 30.9961 224.668 30.9961C225.246 30.9961 225.75 30.8789 226.18 30.6445C226.617 30.4023 226.961 30.1094 227.211 29.7656C227.461 29.4141 227.594 29.082 227.609 28.7695L228.523 30.0234C228.43 30.3438 228.27 30.6875 228.043 31.0547C227.816 31.4219 227.52 31.7734 227.152 32.1094C226.793 32.4375 226.359 32.707 225.852 32.918C225.352 33.1289 224.773 33.2344 224.117 33.2344C223.289 33.2344 222.551 33.0703 221.902 32.7422C221.254 32.4062 220.746 31.957 220.379 31.3945C220.012 30.8242 219.828 30.1797 219.828 29.4609C219.828 28.7891 219.953 28.1953 220.203 27.6797C220.461 27.1562 220.836 26.7188 221.328 26.3672C221.828 26.0156 222.438 25.75 223.156 25.5703C223.875 25.3828 224.695 25.2891 225.617 25.2891H227.832Z" fill="white"/>
<defs>
<linearGradient id="paint0_linear_137_72" x1="0" y1="50" x2="255.579" y2="7.66403" gradientUnits="userSpaceOnUse">
<stop stop-color="#5F0A0A"/>
<stop offset="1" stop-color="#EC1B43"/>
</linearGradient>
</defs>
</svg>
