<svg width="255" height="48" viewBox="0 0 255 48" fill="none" xmlns="http://www.w3.org/2000/svg">
<rect width="255" height="48" fill="url(#paint0_linear_24_95)"/>
<g clip-path="url(#clip0_24_95)">
<path d="M53.5635 30.1074C53.2302 30.2817 52.8864 30.4354 52.5342 30.5674C51.413 30.9869 50.2254 31.2006 49.0283 31.1982C44.4072 31.1982 40.3818 28.0195 40.3818 23.9404C40.3878 23.3933 40.5396 22.8577 40.8216 22.3889C41.1037 21.92 41.5058 21.535 41.9863 21.2734C37.8066 21.4492 36.7324 25.8047 36.7324 28.3564C36.7324 35.5713 43.3818 36.3027 44.8145 36.3027C45.5869 36.3027 46.752 36.0781 47.4512 35.8574L47.5791 35.8145C50.2698 34.8843 52.5636 33.0658 54.083 30.6582C54.1295 30.5849 54.1503 30.4981 54.1421 30.4117C54.1338 30.3252 54.097 30.244 54.0374 30.1808C53.9778 30.1177 53.8988 30.0762 53.813 30.0629C53.7272 30.0496 53.6394 30.0652 53.5635 30.1074Z" fill="url(#paint1_linear_24_95)"/>
<path opacity="0.35" d="M53.5635 30.1074C53.2302 30.2817 52.8864 30.4354 52.5342 30.5674C51.413 30.9869 50.2254 31.2006 49.0283 31.1982C44.4072 31.1982 40.3818 28.0195 40.3818 23.9404C40.3878 23.3933 40.5396 22.8577 40.8216 22.3889C41.1037 21.92 41.5058 21.535 41.9863 21.2734C37.8066 21.4492 36.7324 25.8047 36.7324 28.3564C36.7324 35.5713 43.3818 36.3027 44.8145 36.3027C45.5869 36.3027 46.752 36.0781 47.4512 35.8574L47.5791 35.8145C50.2698 34.8843 52.5636 33.0658 54.083 30.6582C54.1295 30.5849 54.1503 30.4981 54.1421 30.4117C54.1338 30.3252 54.097 30.244 54.0374 30.1808C53.9778 30.1177 53.8988 30.0762 53.813 30.0629C53.7272 30.0496 53.6394 30.0652 53.5635 30.1074Z" fill="url(#paint2_radial_24_95)"/>
<path d="M41.3232 35.0762C40.4522 34.5355 39.6973 33.8272 39.1025 32.9922C38.4246 32.0634 37.9581 30.9975 37.7357 29.8692C37.5133 28.741 37.5405 27.5778 37.8153 26.4612C38.09 25.3446 38.6058 24.3016 39.3263 23.4054C40.0469 22.5093 40.9548 21.7816 41.9863 21.2734C42.291 21.1299 42.8115 20.8701 43.5039 20.8828C43.9917 20.8864 44.4721 21.0028 44.9073 21.2231C45.3426 21.4433 45.7209 21.7614 46.0127 22.1523C46.407 22.6789 46.6245 23.3168 46.6338 23.9746C46.6338 23.9541 49.0224 16.2012 38.8213 16.2012C34.5342 16.2012 31.0088 20.2695 31.0088 23.8389C30.9919 25.727 31.3959 27.5952 32.1914 29.3076C33.4915 32.0816 35.7651 34.2816 38.5804 35.4897C41.3956 36.6979 44.5565 36.8301 47.4629 35.8613C46.4453 36.1822 45.3701 36.2785 44.3117 36.1436C43.2533 36.0087 42.2367 35.6459 41.332 35.0801L41.3232 35.0762Z" fill="url(#paint3_linear_24_95)"/>
<path opacity="0.41" d="M41.3232 35.0762C40.4522 34.5355 39.6973 33.8272 39.1025 32.9922C38.4246 32.0634 37.9581 30.9975 37.7357 29.8692C37.5133 28.741 37.5405 27.5778 37.8153 26.4612C38.09 25.3446 38.6058 24.3016 39.3263 23.4054C40.0469 22.5093 40.9548 21.7816 41.9863 21.2734C42.291 21.1299 42.8115 20.8701 43.5039 20.8828C43.9917 20.8864 44.4721 21.0028 44.9073 21.2231C45.3426 21.4433 45.7209 21.7614 46.0127 22.1523C46.407 22.6789 46.6245 23.3168 46.6338 23.9746C46.6338 23.9541 49.0224 16.2012 38.8213 16.2012C34.5342 16.2012 31.0088 20.2695 31.0088 23.8389C30.9919 25.727 31.3959 27.5952 32.1914 29.3076C33.4915 32.0816 35.7651 34.2816 38.5804 35.4897C41.3956 36.6979 44.5565 36.8301 47.4629 35.8613C46.4453 36.1822 45.3701 36.2785 44.3117 36.1436C43.2533 36.0087 42.2367 35.6459 41.332 35.0801L41.3232 35.0762Z" fill="url(#paint4_radial_24_95)"/>
<path d="M45.874 26.0371C45.7949 26.1396 45.5518 26.2812 45.5518 26.5898C45.5518 26.8447 45.7178 27.0898 46.0127 27.2959C47.417 28.2725 50.0645 28.1436 50.0713 28.1436C51.1118 28.1411 52.1327 27.8595 53.0273 27.3281C53.9299 26.8011 54.679 26.0473 55.2002 25.1415C55.7215 24.2356 55.9969 23.2092 55.999 22.1641C56.0244 19.9756 55.2178 18.5205 54.8916 17.876C52.8223 13.8281 48.3555 11.5 43.498 11.5C40.2131 11.4997 37.06 12.7925 34.7208 15.0988C32.3816 17.4051 31.0442 20.5396 30.998 23.8242C31.0449 20.2559 34.5918 17.374 38.8105 17.374C39.1523 17.374 41.1016 17.4072 42.9121 18.3574C44.5078 19.1953 45.3438 20.207 45.9248 21.21C46.5283 22.252 46.6357 23.5684 46.6357 24.0928C46.6357 24.6172 46.3682 25.3945 45.874 26.0371Z" fill="url(#paint5_radial_24_95)"/>
<path d="M45.874 26.0371C45.7949 26.1396 45.5518 26.2812 45.5518 26.5898C45.5518 26.8447 45.7178 27.0898 46.0127 27.2959C47.417 28.2725 50.0645 28.1436 50.0713 28.1436C51.1118 28.1411 52.1327 27.8595 53.0273 27.3281C53.9299 26.8011 54.679 26.0473 55.2002 25.1415C55.7215 24.2356 55.9969 23.2092 55.999 22.1641C56.0244 19.9756 55.2178 18.5205 54.8916 17.876C52.8223 13.8281 48.3555 11.5 43.498 11.5C40.2131 11.4997 37.06 12.7925 34.7208 15.0988C32.3816 17.4051 31.0442 20.5396 30.998 23.8242C31.0449 20.2559 34.5918 17.374 38.8105 17.374C39.1523 17.374 41.1016 17.4072 42.9121 18.3574C44.5078 19.1953 45.3438 20.207 45.9248 21.21C46.5283 22.252 46.6357 23.5684 46.6357 24.0928C46.6357 24.6172 46.3682 25.3945 45.874 26.0371Z" fill="url(#paint6_radial_24_95)"/>
</g>
<path d="M70.9023 14.9375V32H67.9609V14.9375H70.9023ZM77.0781 22.0273V32H74.2539V19.3203H76.9141L77.0781 22.0273ZM76.5742 25.1914L75.6602 25.1797C75.668 24.2812 75.793 23.457 76.0352 22.707C76.2852 21.957 76.6289 21.3125 77.0664 20.7734C77.5117 20.2344 78.043 19.8203 78.6602 19.5312C79.2773 19.2344 79.9648 19.0859 80.7227 19.0859C81.332 19.0859 81.8828 19.1719 82.375 19.3438C82.875 19.5078 83.3008 19.7773 83.6523 20.1523C84.0117 20.5273 84.2852 21.0156 84.4727 21.6172C84.6602 22.2109 84.7539 22.9414 84.7539 23.8086V32H81.918V23.7969C81.918 23.1875 81.8281 22.707 81.6484 22.3555C81.4766 21.9961 81.2227 21.7422 80.8867 21.5938C80.5586 21.4375 80.1484 21.3594 79.6562 21.3594C79.1719 21.3594 78.7383 21.4609 78.3555 21.6641C77.9727 21.8672 77.6484 22.1445 77.3828 22.4961C77.125 22.8477 76.9258 23.2539 76.7852 23.7148C76.6445 24.1758 76.5742 24.668 76.5742 25.1914ZM94.75 28.5664C94.75 28.2852 94.6797 28.0312 94.5391 27.8047C94.3984 27.5703 94.1289 27.3594 93.7305 27.1719C93.3398 26.9844 92.7617 26.8125 91.9961 26.6562C91.3242 26.5078 90.707 26.332 90.1445 26.1289C89.5898 25.918 89.1133 25.6641 88.7148 25.3672C88.3164 25.0703 88.0078 24.7188 87.7891 24.3125C87.5703 23.9062 87.4609 23.4375 87.4609 22.9062C87.4609 22.3906 87.5742 21.9023 87.8008 21.4414C88.0273 20.9805 88.3516 20.5742 88.7734 20.2227C89.1953 19.8711 89.707 19.5938 90.3086 19.3906C90.918 19.1875 91.5977 19.0859 92.3477 19.0859C93.4102 19.0859 94.3203 19.2656 95.0781 19.625C95.8438 19.9766 96.4297 20.457 96.8359 21.0664C97.2422 21.668 97.4453 22.3477 97.4453 23.1055H94.6211C94.6211 22.7695 94.5352 22.457 94.3633 22.168C94.1992 21.8711 93.9492 21.6328 93.6133 21.4531C93.2773 21.2656 92.8555 21.1719 92.3477 21.1719C91.8633 21.1719 91.4609 21.25 91.1406 21.4062C90.8281 21.5547 90.5938 21.75 90.4375 21.9922C90.2891 22.2344 90.2148 22.5 90.2148 22.7891C90.2148 23 90.2539 23.1914 90.332 23.3633C90.418 23.5273 90.5586 23.6797 90.7539 23.8203C90.9492 23.9531 91.2148 24.0781 91.5508 24.1953C91.8945 24.3125 92.3242 24.4258 92.8398 24.5352C93.8086 24.7383 94.6406 25 95.3359 25.3203C96.0391 25.6328 96.5781 26.0391 96.9531 26.5391C97.3281 27.0312 97.5156 27.6562 97.5156 28.4141C97.5156 28.9766 97.3945 29.4922 97.1523 29.9609C96.918 30.4219 96.5742 30.8242 96.1211 31.168C95.668 31.5039 95.125 31.7656 94.4922 31.9531C93.8672 32.1406 93.1641 32.2344 92.3828 32.2344C91.2344 32.2344 90.2617 32.0312 89.4648 31.625C88.668 31.2109 88.0625 30.6836 87.6484 30.043C87.2422 29.3945 87.0391 28.7227 87.0391 28.0273H89.7695C89.8008 28.5508 89.9453 28.9688 90.2031 29.2812C90.4688 29.5859 90.7969 29.8086 91.1875 29.9492C91.5859 30.082 91.9961 30.1484 92.418 30.1484C92.9258 30.1484 93.3516 30.082 93.6953 29.9492C94.0391 29.8086 94.3008 29.6211 94.4805 29.3867C94.6602 29.1445 94.75 28.8711 94.75 28.5664ZM105.801 19.3203V21.3828H98.6523V19.3203H105.801ZM100.715 16.2148H103.539V28.4961C103.539 28.8867 103.594 29.1875 103.703 29.3984C103.82 29.6016 103.98 29.7383 104.184 29.8086C104.387 29.8789 104.625 29.9141 104.898 29.9141C105.094 29.9141 105.281 29.9023 105.461 29.8789C105.641 29.8555 105.785 29.832 105.895 29.8086L105.906 31.9648C105.672 32.0352 105.398 32.0977 105.086 32.1523C104.781 32.207 104.43 32.2344 104.031 32.2344C103.383 32.2344 102.809 32.1211 102.309 31.8945C101.809 31.6602 101.418 31.2812 101.137 30.7578C100.855 30.2344 100.715 29.5391 100.715 28.6719V16.2148ZM115.129 29.457V23.4102C115.129 22.957 115.047 22.5664 114.883 22.2383C114.719 21.9102 114.469 21.6562 114.133 21.4766C113.805 21.2969 113.391 21.207 112.891 21.207C112.43 21.207 112.031 21.2852 111.695 21.4414C111.359 21.5977 111.098 21.8086 110.91 22.0742C110.723 22.3398 110.629 22.6406 110.629 22.9766H107.816C107.816 22.4766 107.938 21.9922 108.18 21.5234C108.422 21.0547 108.773 20.6367 109.234 20.2695C109.695 19.9023 110.246 19.6133 110.887 19.4023C111.527 19.1914 112.246 19.0859 113.043 19.0859C113.996 19.0859 114.84 19.2461 115.574 19.5664C116.316 19.8867 116.898 20.3711 117.32 21.0195C117.75 21.6602 117.965 22.4648 117.965 23.4336V29.0703C117.965 29.6484 118.004 30.168 118.082 30.6289C118.168 31.082 118.289 31.4766 118.445 31.8125V32H115.551C115.418 31.6953 115.312 31.3086 115.234 30.8398C115.164 30.3633 115.129 29.9023 115.129 29.457ZM115.539 24.2891L115.562 26.0352H113.535C113.012 26.0352 112.551 26.0859 112.152 26.1875C111.754 26.2812 111.422 26.4219 111.156 26.6094C110.891 26.7969 110.691 27.0234 110.559 27.2891C110.426 27.5547 110.359 27.8555 110.359 28.1914C110.359 28.5273 110.438 28.8359 110.594 29.1172C110.75 29.3906 110.977 29.6055 111.273 29.7617C111.578 29.918 111.945 29.9961 112.375 29.9961C112.953 29.9961 113.457 29.8789 113.887 29.6445C114.324 29.4023 114.668 29.1094 114.918 28.7656C115.168 28.4141 115.301 28.082 115.316 27.7695L116.23 29.0234C116.137 29.3438 115.977 29.6875 115.75 30.0547C115.523 30.4219 115.227 30.7734 114.859 31.1094C114.5 31.4375 114.066 31.707 113.559 31.918C113.059 32.1289 112.48 32.2344 111.824 32.2344C110.996 32.2344 110.258 32.0703 109.609 31.7422C108.961 31.4062 108.453 30.957 108.086 30.3945C107.719 29.8242 107.535 29.1797 107.535 28.4609C107.535 27.7891 107.66 27.1953 107.91 26.6797C108.168 26.1562 108.543 25.7188 109.035 25.3672C109.535 25.0156 110.145 24.75 110.863 24.5703C111.582 24.3828 112.402 24.2891 113.324 24.2891H115.539ZM123.941 14V32H121.105V14H123.941ZM130.059 14V32H127.223V14H130.059ZM138.59 25.8008V25.5312C138.59 24.6172 138.723 23.7695 138.988 22.9883C139.254 22.1992 139.637 21.5156 140.137 20.9375C140.645 20.3516 141.262 19.8984 141.988 19.5781C142.723 19.25 143.551 19.0859 144.473 19.0859C145.402 19.0859 146.23 19.25 146.957 19.5781C147.691 19.8984 148.312 20.3516 148.82 20.9375C149.328 21.5156 149.715 22.1992 149.98 22.9883C150.246 23.7695 150.379 24.6172 150.379 25.5312V25.8008C150.379 26.7148 150.246 27.5625 149.98 28.3438C149.715 29.125 149.328 29.8086 148.82 30.3945C148.312 30.9727 147.695 31.4258 146.969 31.7539C146.242 32.0742 145.418 32.2344 144.496 32.2344C143.566 32.2344 142.734 32.0742 142 31.7539C141.273 31.4258 140.656 30.9727 140.148 30.3945C139.641 29.8086 139.254 29.125 138.988 28.3438C138.723 27.5625 138.59 26.7148 138.59 25.8008ZM141.414 25.5312V25.8008C141.414 26.3711 141.473 26.9102 141.59 27.418C141.707 27.9258 141.891 28.3711 142.141 28.7539C142.391 29.1367 142.711 29.4375 143.102 29.6562C143.492 29.875 143.957 29.9844 144.496 29.9844C145.02 29.9844 145.473 29.875 145.855 29.6562C146.246 29.4375 146.566 29.1367 146.816 28.7539C147.066 28.3711 147.25 27.9258 147.367 27.418C147.492 26.9102 147.555 26.3711 147.555 25.8008V25.5312C147.555 24.9688 147.492 24.4375 147.367 23.9375C147.25 23.4297 147.062 22.9805 146.805 22.5898C146.555 22.1992 146.234 21.8945 145.844 21.6758C145.461 21.4492 145.004 21.3359 144.473 21.3359C143.941 21.3359 143.48 21.4492 143.09 21.6758C142.707 21.8945 142.391 22.1992 142.141 22.5898C141.891 22.9805 141.707 23.4297 141.59 23.9375C141.473 24.4375 141.414 24.9688 141.414 25.5312ZM155.547 22.0273V32H152.723V19.3203H155.383L155.547 22.0273ZM155.043 25.1914L154.129 25.1797C154.137 24.2812 154.262 23.457 154.504 22.707C154.754 21.957 155.098 21.3125 155.535 20.7734C155.98 20.2344 156.512 19.8203 157.129 19.5312C157.746 19.2344 158.434 19.0859 159.191 19.0859C159.801 19.0859 160.352 19.1719 160.844 19.3438C161.344 19.5078 161.77 19.7773 162.121 20.1523C162.48 20.5273 162.754 21.0156 162.941 21.6172C163.129 22.2109 163.223 22.9414 163.223 23.8086V32H160.387V23.7969C160.387 23.1875 160.297 22.707 160.117 22.3555C159.945 21.9961 159.691 21.7422 159.355 21.5938C159.027 21.4375 158.617 21.3594 158.125 21.3594C157.641 21.3594 157.207 21.4609 156.824 21.6641C156.441 21.8672 156.117 22.1445 155.852 22.4961C155.594 22.8477 155.395 23.2539 155.254 23.7148C155.113 24.1758 155.043 24.668 155.043 25.1914ZM183.531 29.668V32H174.473V29.668H183.531ZM175.305 14.9375V32H172.363V14.9375H175.305ZM182.348 22.0625V24.3594H174.473V22.0625H182.348ZM183.473 14.9375V17.2812H174.473V14.9375H183.473ZM193.152 29.375V14H195.988V32H193.422L193.152 29.375ZM184.902 25.8008V25.5547C184.902 24.5938 185.016 23.7188 185.242 22.9297C185.469 22.1328 185.797 21.4492 186.227 20.8789C186.656 20.3008 187.18 19.8594 187.797 19.5547C188.414 19.2422 189.109 19.0859 189.883 19.0859C190.648 19.0859 191.32 19.2344 191.898 19.5312C192.477 19.8281 192.969 20.2539 193.375 20.8086C193.781 21.3555 194.105 22.0117 194.348 22.7773C194.59 23.5352 194.762 24.3789 194.863 25.3086V26.0938C194.762 27 194.59 27.8281 194.348 28.5781C194.105 29.3281 193.781 29.9766 193.375 30.5234C192.969 31.0703 192.473 31.4922 191.887 31.7891C191.309 32.0859 190.633 32.2344 189.859 32.2344C189.094 32.2344 188.402 32.0742 187.785 31.7539C187.176 31.4336 186.656 30.9844 186.227 30.4062C185.797 29.8281 185.469 29.1484 185.242 28.3672C185.016 27.5781 184.902 26.7227 184.902 25.8008ZM187.727 25.5547V25.8008C187.727 26.3789 187.777 26.918 187.879 27.418C187.988 27.918 188.156 28.3594 188.383 28.7422C188.609 29.1172 188.902 29.4141 189.262 29.6328C189.629 29.8438 190.066 29.9492 190.574 29.9492C191.215 29.9492 191.742 29.8086 192.156 29.5273C192.57 29.2461 192.895 28.8672 193.129 28.3906C193.371 27.9062 193.535 27.3672 193.621 26.7734V24.6523C193.574 24.1914 193.477 23.7617 193.328 23.3633C193.188 22.9648 192.996 22.6172 192.754 22.3203C192.512 22.0156 192.211 21.7812 191.852 21.6172C191.5 21.4453 191.082 21.3594 190.598 21.3594C190.082 21.3594 189.645 21.4688 189.285 21.6875C188.926 21.9062 188.629 22.207 188.395 22.5898C188.168 22.9727 188 23.418 187.891 23.9258C187.781 24.4336 187.727 24.9766 187.727 25.5547ZM207.062 19.3203H209.629V31.6484C209.629 32.7891 209.387 33.7578 208.902 34.5547C208.418 35.3516 207.742 35.957 206.875 36.3711C206.008 36.793 205.004 37.0039 203.863 37.0039C203.379 37.0039 202.84 36.9336 202.246 36.793C201.66 36.6523 201.09 36.4258 200.535 36.1133C199.988 35.8086 199.531 35.4062 199.164 34.9062L200.488 33.2422C200.941 33.7812 201.441 34.1758 201.988 34.4258C202.535 34.6758 203.109 34.8008 203.711 34.8008C204.359 34.8008 204.91 34.6797 205.363 34.4375C205.824 34.2031 206.18 33.8555 206.43 33.3945C206.68 32.9336 206.805 32.3711 206.805 31.707V22.1914L207.062 19.3203ZM198.449 25.8008V25.5547C198.449 24.5938 198.566 23.7188 198.801 22.9297C199.035 22.1328 199.371 21.4492 199.809 20.8789C200.246 20.3008 200.777 19.8594 201.402 19.5547C202.027 19.2422 202.734 19.0859 203.523 19.0859C204.344 19.0859 205.043 19.2344 205.621 19.5312C206.207 19.8281 206.695 20.2539 207.086 20.8086C207.477 21.3555 207.781 22.0117 208 22.7773C208.227 23.5352 208.395 24.3789 208.504 25.3086V26.0938C208.402 27 208.23 27.8281 207.988 28.5781C207.746 29.3281 207.426 29.9766 207.027 30.5234C206.629 31.0703 206.137 31.4922 205.551 31.7891C204.973 32.0859 204.289 32.2344 203.5 32.2344C202.727 32.2344 202.027 32.0742 201.402 31.7539C200.785 31.4336 200.254 30.9844 199.809 30.4062C199.371 29.8281 199.035 29.1484 198.801 28.3672C198.566 27.5781 198.449 26.7227 198.449 25.8008ZM201.273 25.5547V25.8008C201.273 26.3789 201.328 26.918 201.438 27.418C201.555 27.918 201.73 28.3594 201.965 28.7422C202.207 29.1172 202.512 29.4141 202.879 29.6328C203.254 29.8438 203.695 29.9492 204.203 29.9492C204.867 29.9492 205.41 29.8086 205.832 29.5273C206.262 29.2461 206.59 28.8672 206.816 28.3906C207.051 27.9062 207.215 27.3672 207.309 26.7734V24.6523C207.262 24.1914 207.164 23.7617 207.016 23.3633C206.875 22.9648 206.684 22.6172 206.441 22.3203C206.199 22.0156 205.895 21.7812 205.527 21.6172C205.16 21.4453 204.727 21.3594 204.227 21.3594C203.719 21.3594 203.277 21.4688 202.902 21.6875C202.527 21.9062 202.219 22.207 201.977 22.5898C201.742 22.9727 201.566 23.418 201.449 23.9258C201.332 24.4336 201.273 24.9766 201.273 25.5547ZM218.148 32.2344C217.211 32.2344 216.363 32.082 215.605 31.7773C214.855 31.4648 214.215 31.0312 213.684 30.4766C213.16 29.9219 212.758 29.2695 212.477 28.5195C212.195 27.7695 212.055 26.9609 212.055 26.0938V25.625C212.055 24.6328 212.199 23.7344 212.488 22.9297C212.777 22.125 213.18 21.4375 213.695 20.8672C214.211 20.2891 214.82 19.8477 215.523 19.543C216.227 19.2383 216.988 19.0859 217.809 19.0859C218.715 19.0859 219.508 19.2383 220.188 19.543C220.867 19.8477 221.43 20.2773 221.875 20.832C222.328 21.3789 222.664 22.0312 222.883 22.7891C223.109 23.5469 223.223 24.3828 223.223 25.2969V26.5039H213.426V24.4766H220.434V24.2539C220.418 23.7461 220.316 23.2695 220.129 22.8242C219.949 22.3789 219.672 22.0195 219.297 21.7461C218.922 21.4727 218.422 21.3359 217.797 21.3359C217.328 21.3359 216.91 21.4375 216.543 21.6406C216.184 21.8359 215.883 22.1211 215.641 22.4961C215.398 22.8711 215.211 23.3242 215.078 23.8555C214.953 24.3789 214.891 24.9688 214.891 25.625V26.0938C214.891 26.6484 214.965 27.1641 215.113 27.6406C215.27 28.1094 215.496 28.5195 215.793 28.8711C216.09 29.2227 216.449 29.5 216.871 29.7031C217.293 29.8984 217.773 29.9961 218.312 29.9961C218.992 29.9961 219.598 29.8594 220.129 29.5859C220.66 29.3125 221.121 28.9258 221.512 28.4258L223 29.8672C222.727 30.2656 222.371 30.6484 221.934 31.0156C221.496 31.375 220.961 31.668 220.328 31.8945C219.703 32.1211 218.977 32.2344 218.148 32.2344Z" fill="white"/>
<defs>
<linearGradient id="paint0_linear_24_95" x1="0" y1="48" x2="255" y2="4" gradientUnits="userSpaceOnUse">
<stop stop-color="#0D569F"/>
<stop offset="1" stop-color="#45D262"/>
</linearGradient>
<linearGradient id="paint1_linear_24_95" x1="36.7324" y1="28.79" x2="54.1484" y2="28.79" gradientUnits="userSpaceOnUse">
<stop stop-color="#0C59A4"/>
<stop offset="1" stop-color="#114A8B"/>
</linearGradient>
<radialGradient id="paint2_radial_24_95" cx="0" cy="0" r="1" gradientUnits="userSpaceOnUse" gradientTransform="translate(46.3516 28.9273) scale(9.31445 8.84873)">
<stop offset="0.72" stop-opacity="0"/>
<stop offset="0.95" stop-opacity="0.53"/>
<stop offset="1"/>
</radialGradient>
<linearGradient id="paint3_linear_24_95" x1="45.9141" y1="21.2354" x2="35.0361" y2="33.084" gradientUnits="userSpaceOnUse">
<stop stop-color="#1B9DE2"/>
<stop offset="0.16" stop-color="#1595DF"/>
<stop offset="0.67" stop-color="#0680D7"/>
<stop offset="1" stop-color="#0078D4"/>
</linearGradient>
<radialGradient id="paint4_radial_24_95" cx="0" cy="0" r="1" gradientUnits="userSpaceOnUse" gradientTransform="translate(37.892 30.9344) rotate(-81.3844) scale(14.0065 11.3158)">
<stop offset="0.76" stop-opacity="0"/>
<stop offset="0.95" stop-opacity="0.5"/>
<stop offset="1"/>
</radialGradient>
<radialGradient id="paint5_radial_24_95" cx="0" cy="0" r="1" gradientUnits="userSpaceOnUse" gradientTransform="translate(33.5237 16.1266) rotate(92.2906) scale(19.7844 42.1366)">
<stop stop-color="#35C1F1"/>
<stop offset="0.11" stop-color="#34C1ED"/>
<stop offset="0.23" stop-color="#2FC2DF"/>
<stop offset="0.31" stop-color="#2BC3D2"/>
<stop offset="0.67" stop-color="#36C752"/>
</radialGradient>
<radialGradient id="paint6_radial_24_95" cx="0" cy="0" r="1" gradientUnits="userSpaceOnUse" gradientTransform="translate(54.4426 19.0592) rotate(73.7398) scale(9.50586 7.73016)">
<stop stop-color="#66EB6E"/>
<stop offset="1" stop-color="#66EB6E" stop-opacity="0"/>
</radialGradient>
<clipPath id="clip0_24_95">
<rect width="25" height="25" fill="white" transform="translate(31 11.5)"/>
</clipPath>
</defs>
</svg>
