<?xml version="1.0" encoding="UTF-8" standalone="no"?>
<!DOCTYPE svg PUBLIC "-//W3C//DTD SVG 1.1//EN" "http://www.w3.org/Graphics/SVG/1.1/DTD/svg11.dtd">
<svg width="100%" height="100%" viewBox="0 0 32 30" version="1.1" xmlns="http://www.w3.org/2000/svg" xmlns:xlink="http://www.w3.org/1999/xlink" xml:space="preserve" xmlns:serif="http://www.serif.com/" style="fill-rule:evenodd;clip-rule:evenodd;stroke-linejoin:round;stroke-miterlimit:2;">
    <g transform="matrix(0.0155317,3.08149e-34,-3.08149e-34,-0.0155317,-8.54245,41.5353)">
        <path d="M1535,2661.69C1609,2694.69 1605,2698.69 2108,2195.69C2362,1942.69 2578,1723.69 2589,1708.69C2630,1657.69 2609,1560.69 2550,1530.69C2516,1512.69 2458,1510.69 2427,1526.69C2415,1532.69 2219,1722.69 1993,1949.69L1580,2360.69L1168,1949.69C941,1722.69 745,1532.69 733,1526.69C702,1510.69 644,1512.69 610,1530.69C572,1550.69 550,1593.69 550,1647.69L550,1690.69L1028,2168.69C1290,2432.69 1519,2653.69 1535,2661.69ZM1535,1916C1609,1949 1605,1953 2108,1450C2362,1197 2578,978 2589,963C2630,912 2609,815 2550,785C2516,767 2458,765 2427,781C2415,787 2219,977 1993,1204L1580,1615L1168,1204C941,977 745,787 733,781C702,765 644,767 610,785C572,805 550,848 550,902L550,945L1028,1423C1290,1687 1519,1908 1535,1916Z" style="fill:rgb(183,183,183);"/>
    </g>
</svg>
