<svg width="255" height="48" viewBox="0 0 255 48" fill="none" xmlns="http://www.w3.org/2000/svg">
<rect width="255" height="48" fill="url(#paint0_linear_295_18)"/>
<g clip-path="url(#clip0_295_18)">
<path fill-rule="evenodd" clip-rule="evenodd" d="M53 10C60.7268 10 67 16.2732 67 24C67 31.7268 60.7268 38 53 38C45.2732 38 39 31.7268 39 24C39 16.2732 45.2732 10 53 10ZM55.9832 28.6667H50.0157C50.6527 31.5367 51.6968 33.4663 53 35.368C54.393 33.3368 55.3812 31.3897 55.9832 28.6667ZM47.6333 28.6667H42.3052C43.7472 31.9625 46.6265 34.4673 50.186 35.3353C48.9633 33.3135 48.1058 31.0677 47.6333 28.6667ZM63.6948 28.6667H58.3667C57.9105 30.986 57.0892 33.2015 55.8292 35.3097C59.3432 34.4195 62.2657 31.9322 63.6948 28.6667ZM47.3557 21.6667H41.5667C41.2552 23.1985 41.2552 24.7992 41.5667 26.3333H47.3008C47.162 24.7828 47.183 23.216 47.3557 21.6667ZM56.2935 21.6667H49.7053C49.5128 23.2137 49.4895 24.784 49.6435 26.3333H56.3553C56.5105 24.784 56.4848 23.2148 56.2935 21.6667ZM64.4333 21.6667H58.6432C58.8158 23.216 58.8368 24.7828 58.6992 26.3333H64.4333C64.7367 24.8342 64.7518 23.244 64.4333 21.6667ZM50.2513 12.6495C46.6615 13.5035 43.7565 16.0165 42.3052 19.3333H47.7337C48.2412 16.951 49.108 14.6842 50.2513 12.6495ZM52.9988 12.5935C51.7283 14.6585 50.7705 16.622 50.1253 19.3333H55.8735C55.2505 16.713 54.3137 14.7273 52.9988 12.5935ZM55.7615 12.674C56.9433 14.788 57.7833 17.0607 58.2652 19.3333H63.6948C62.2575 16.048 59.3058 13.549 55.7615 12.674Z" fill="white"/>
</g>
<path d="M84.9062 28.8828L89.3945 14.9375H92.6406L86.5234 32H84.332L84.9062 28.8828ZM80.7578 14.9375L85.2109 28.8828L85.8203 32H83.6172L77.5234 14.9375H80.7578ZM97.293 19.3203V32H94.457V19.3203H97.293ZM94.2695 15.9922C94.2695 15.5625 94.4102 15.207 94.6914 14.9258C94.9805 14.6367 95.3789 14.4922 95.8867 14.4922C96.3867 14.4922 96.7812 14.6367 97.0703 14.9258C97.3594 15.207 97.5039 15.5625 97.5039 15.9922C97.5039 16.4141 97.3594 16.7656 97.0703 17.0469C96.7812 17.3281 96.3867 17.4688 95.8867 17.4688C95.3789 17.4688 94.9805 17.3281 94.6914 17.0469C94.4102 16.7656 94.2695 16.4141 94.2695 15.9922ZM105.977 32.2344C105.039 32.2344 104.191 32.082 103.434 31.7773C102.684 31.4648 102.043 31.0312 101.512 30.4766C100.988 29.9219 100.586 29.2695 100.305 28.5195C100.023 27.7695 99.8828 26.9609 99.8828 26.0938V25.625C99.8828 24.6328 100.027 23.7344 100.316 22.9297C100.605 22.125 101.008 21.4375 101.523 20.8672C102.039 20.2891 102.648 19.8477 103.352 19.543C104.055 19.2383 104.816 19.0859 105.637 19.0859C106.543 19.0859 107.336 19.2383 108.016 19.543C108.695 19.8477 109.258 20.2773 109.703 20.832C110.156 21.3789 110.492 22.0312 110.711 22.7891C110.938 23.5469 111.051 24.3828 111.051 25.2969V26.5039H101.254V24.4766H108.262V24.2539C108.246 23.7461 108.145 23.2695 107.957 22.8242C107.777 22.3789 107.5 22.0195 107.125 21.7461C106.75 21.4727 106.25 21.3359 105.625 21.3359C105.156 21.3359 104.738 21.4375 104.371 21.6406C104.012 21.8359 103.711 22.1211 103.469 22.4961C103.227 22.8711 103.039 23.3242 102.906 23.8555C102.781 24.3789 102.719 24.9688 102.719 25.625V26.0938C102.719 26.6484 102.793 27.1641 102.941 27.6406C103.098 28.1094 103.324 28.5195 103.621 28.8711C103.918 29.2227 104.277 29.5 104.699 29.7031C105.121 29.8984 105.602 29.9961 106.141 29.9961C106.82 29.9961 107.426 29.8594 107.957 29.5859C108.488 29.3125 108.949 28.9258 109.34 28.4258L110.828 29.8672C110.555 30.2656 110.199 30.6484 109.762 31.0156C109.324 31.375 108.789 31.668 108.156 31.8945C107.531 32.1211 106.805 32.2344 105.977 32.2344ZM116.699 29.1875L119.629 19.3203H121.434L120.941 22.2734L117.988 32H116.371L116.699 29.1875ZM114.977 19.3203L117.262 29.2344L117.449 32H115.645L112.211 19.3203H114.977ZM124.176 29.1172L126.391 19.3203H129.145L125.723 32H123.918L124.176 29.1172ZM121.738 19.3203L124.633 29.0703L124.996 32H123.379L120.391 22.2617L119.898 19.3203H121.738ZM136.504 25.8008V25.5312C136.504 24.6172 136.637 23.7695 136.902 22.9883C137.168 22.1992 137.551 21.5156 138.051 20.9375C138.559 20.3516 139.176 19.8984 139.902 19.5781C140.637 19.25 141.465 19.0859 142.387 19.0859C143.316 19.0859 144.145 19.25 144.871 19.5781C145.605 19.8984 146.227 20.3516 146.734 20.9375C147.242 21.5156 147.629 22.1992 147.895 22.9883C148.16 23.7695 148.293 24.6172 148.293 25.5312V25.8008C148.293 26.7148 148.16 27.5625 147.895 28.3438C147.629 29.125 147.242 29.8086 146.734 30.3945C146.227 30.9727 145.609 31.4258 144.883 31.7539C144.156 32.0742 143.332 32.2344 142.41 32.2344C141.48 32.2344 140.648 32.0742 139.914 31.7539C139.188 31.4258 138.57 30.9727 138.062 30.3945C137.555 29.8086 137.168 29.125 136.902 28.3438C136.637 27.5625 136.504 26.7148 136.504 25.8008ZM139.328 25.5312V25.8008C139.328 26.3711 139.387 26.9102 139.504 27.418C139.621 27.9258 139.805 28.3711 140.055 28.7539C140.305 29.1367 140.625 29.4375 141.016 29.6562C141.406 29.875 141.871 29.9844 142.41 29.9844C142.934 29.9844 143.387 29.875 143.77 29.6562C144.16 29.4375 144.48 29.1367 144.73 28.7539C144.98 28.3711 145.164 27.9258 145.281 27.418C145.406 26.9102 145.469 26.3711 145.469 25.8008V25.5312C145.469 24.9688 145.406 24.4375 145.281 23.9375C145.164 23.4297 144.977 22.9805 144.719 22.5898C144.469 22.1992 144.148 21.8945 143.758 21.6758C143.375 21.4492 142.918 21.3359 142.387 21.3359C141.855 21.3359 141.395 21.4492 141.004 21.6758C140.621 21.8945 140.305 22.1992 140.055 22.5898C139.805 22.9805 139.621 23.4297 139.504 23.9375C139.387 24.4375 139.328 24.9688 139.328 25.5312ZM153.461 22.0273V32H150.637V19.3203H153.297L153.461 22.0273ZM152.957 25.1914L152.043 25.1797C152.051 24.2812 152.176 23.457 152.418 22.707C152.668 21.957 153.012 21.3125 153.449 20.7734C153.895 20.2344 154.426 19.8203 155.043 19.5312C155.66 19.2344 156.348 19.0859 157.105 19.0859C157.715 19.0859 158.266 19.1719 158.758 19.3438C159.258 19.5078 159.684 19.7773 160.035 20.1523C160.395 20.5273 160.668 21.0156 160.855 21.6172C161.043 22.2109 161.137 22.9414 161.137 23.8086V32H158.301V23.7969C158.301 23.1875 158.211 22.707 158.031 22.3555C157.859 21.9961 157.605 21.7422 157.27 21.5938C156.941 21.4375 156.531 21.3594 156.039 21.3594C155.555 21.3594 155.121 21.4609 154.738 21.6641C154.355 21.8672 154.031 22.1445 153.766 22.4961C153.508 22.8477 153.309 23.2539 153.168 23.7148C153.027 24.1758 152.957 24.668 152.957 25.1914ZM174.555 28.168L177.953 14.9375H179.734L179.535 18.3477L175.902 32H174.051L174.555 28.168ZM172.012 14.9375L174.766 28.0625L175.012 32H173.043L169.094 14.9375H172.012ZM183.59 28.0273L186.309 14.9375H189.238L185.289 32H183.32L183.59 28.0273ZM180.426 14.9375L183.789 28.2031L184.281 32H182.43L178.855 18.3477L178.668 14.9375H180.426ZM196.352 32.2344C195.414 32.2344 194.566 32.082 193.809 31.7773C193.059 31.4648 192.418 31.0312 191.887 30.4766C191.363 29.9219 190.961 29.2695 190.68 28.5195C190.398 27.7695 190.258 26.9609 190.258 26.0938V25.625C190.258 24.6328 190.402 23.7344 190.691 22.9297C190.98 22.125 191.383 21.4375 191.898 20.8672C192.414 20.2891 193.023 19.8477 193.727 19.543C194.43 19.2383 195.191 19.0859 196.012 19.0859C196.918 19.0859 197.711 19.2383 198.391 19.543C199.07 19.8477 199.633 20.2773 200.078 20.832C200.531 21.3789 200.867 22.0312 201.086 22.7891C201.312 23.5469 201.426 24.3828 201.426 25.2969V26.5039H191.629V24.4766H198.637V24.2539C198.621 23.7461 198.52 23.2695 198.332 22.8242C198.152 22.3789 197.875 22.0195 197.5 21.7461C197.125 21.4727 196.625 21.3359 196 21.3359C195.531 21.3359 195.113 21.4375 194.746 21.6406C194.387 21.8359 194.086 22.1211 193.844 22.4961C193.602 22.8711 193.414 23.3242 193.281 23.8555C193.156 24.3789 193.094 24.9688 193.094 25.625V26.0938C193.094 26.6484 193.168 27.1641 193.316 27.6406C193.473 28.1094 193.699 28.5195 193.996 28.8711C194.293 29.2227 194.652 29.5 195.074 29.7031C195.496 29.8984 195.977 29.9961 196.516 29.9961C197.195 29.9961 197.801 29.8594 198.332 29.5859C198.863 29.3125 199.324 28.9258 199.715 28.4258L201.203 29.8672C200.93 30.2656 200.574 30.6484 200.137 31.0156C199.699 31.375 199.164 31.668 198.531 31.8945C197.906 32.1211 197.18 32.2344 196.352 32.2344ZM203.641 14H206.465V29.293L206.195 32H203.641V14ZM214.738 25.543V25.7891C214.738 26.7266 214.633 27.5898 214.422 28.3789C214.219 29.1602 213.906 29.8398 213.484 30.418C213.07 30.9961 212.555 31.4453 211.938 31.7656C211.328 32.0781 210.621 32.2344 209.816 32.2344C209.027 32.2344 208.34 32.0859 207.754 31.7891C207.168 31.4922 206.676 31.0703 206.277 30.5234C205.887 29.9766 205.57 29.3242 205.328 28.5664C205.086 27.8086 204.914 26.9727 204.812 26.0586V25.2734C204.914 24.3516 205.086 23.5156 205.328 22.7656C205.57 22.0078 205.887 21.3555 206.277 20.8086C206.676 20.2539 207.164 19.8281 207.742 19.5312C208.328 19.2344 209.012 19.0859 209.793 19.0859C210.605 19.0859 211.32 19.2422 211.938 19.5547C212.562 19.8672 213.082 20.3125 213.496 20.8906C213.91 21.4609 214.219 22.1406 214.422 22.9297C214.633 23.7188 214.738 24.5898 214.738 25.543ZM211.914 25.7891V25.543C211.914 24.9727 211.867 24.4375 211.773 23.9375C211.68 23.4297 211.523 22.9844 211.305 22.6016C211.094 22.2188 210.805 21.918 210.438 21.6992C210.078 21.4727 209.629 21.3594 209.09 21.3594C208.59 21.3594 208.16 21.4453 207.801 21.6172C207.441 21.7891 207.141 22.0234 206.898 22.3203C206.656 22.6172 206.465 22.9609 206.324 23.3516C206.191 23.7422 206.102 24.1641 206.055 24.6172V26.7383C206.125 27.3242 206.273 27.8633 206.5 28.3555C206.734 28.8398 207.062 29.2305 207.484 29.5273C207.906 29.8164 208.449 29.9609 209.113 29.9609C209.637 29.9609 210.078 29.8555 210.438 29.6445C210.797 29.4336 211.082 29.1406 211.293 28.7656C211.512 28.3828 211.668 27.9375 211.762 27.4297C211.863 26.9219 211.914 26.375 211.914 25.7891Z" fill="white"/>
<defs>
<linearGradient id="paint0_linear_295_18" x1="0" y1="48" x2="255" y2="4" gradientUnits="userSpaceOnUse">
<stop stop-color="#202020"/>
<stop offset="1" stop-color="#3A3A3A"/>
</linearGradient>
<clipPath id="clip0_295_18">
<rect width="28" height="28" fill="white" transform="translate(39 10)"/>
</clipPath>
</defs>
</svg>
