<svg width="32" height="32" viewBox="0 0 32 32" fill="none" xmlns="http://www.w3.org/2000/svg">
<path fill-rule="evenodd" clip-rule="evenodd" d="M5 0C2.23858 0 0 2.23858 0 5V27C0 29.7614 2.23858 32 5 32H27C29.7614 32 32 29.7614 32 27V5C32 2.23858 29.7614 0 27 0H5ZM25 16C25 11.0328 20.9673 7 16 7C11.0328 7 7 11.0328 7 16C7 20.9673 11.0328 25 16 25C20.9673 25 25 20.9673 25 16ZM14.0815 19H17.9177C17.5308 20.7505 16.8955 22.0022 16 23.308C15.1622 22.0855 14.491 20.845 14.0815 19ZM9.12475 19H12.55C12.8538 20.5435 13.405 21.9872 14.191 23.287C11.9028 22.729 10.0518 21.1187 9.12475 19ZM19.45 19H22.8752C21.9565 21.0993 20.0778 22.6982 17.8188 23.2705C18.6287 21.9153 19.1567 20.491 19.45 19ZM8.65 14.5H12.3715C12.2605 15.496 12.247 16.5033 12.3363 17.5H8.65C8.44975 16.5138 8.44975 15.4847 8.65 14.5ZM13.882 14.5H18.1173C18.2402 15.4952 18.2568 16.504 18.157 17.5H13.8422C13.7432 16.504 13.7582 15.4945 13.882 14.5ZM19.6278 14.5H23.35C23.5547 15.514 23.545 16.5362 23.35 17.5H19.6637C19.7523 16.5033 19.7388 15.496 19.6278 14.5ZM9.12475 13C10.0577 10.8678 11.9253 9.25225 14.233 8.70325C13.498 10.0112 12.9408 11.4685 12.6145 13H9.12475ZM14.152 13C14.5668 11.257 15.1825 9.99475 15.9992 8.66725C16.8445 10.039 17.4468 11.3155 17.8472 13H14.152ZM19.3848 13C19.075 11.539 18.535 10.078 17.7752 8.719C20.0537 9.2815 21.9513 10.888 22.8752 13H19.3848Z" fill="#202020"/>
</svg>
